M48
; DRILL file {KiCad (5.1.5)-3} date 30.05.2020 00:12:59
; FORMAT={-:-/ absolute / inch / decimal}
; #@! TF.CreationDate,2020-05-30T00:12:59+02:00
; #@! TF.GenerationSoftware,Kicad,Pcbnew,(5.1.5)-3
FMAT,2
INCH
T1C0.0157
T2C0.0276
T3C0.0295
T4C0.0315
T5C0.0394
T6C0.0433
T7C0.0472
T8C0.0512
T9C0.0551
%
G90
G05
T1
X3.6Y-2.75
X3.6808Y-2.6308
T2
X3.0116Y-5.1308
X3.3116Y-5.1308
X3.0116Y-3.1808
X3.3116Y-3.1808
X3.0116Y-4.5308
X3.3116Y-4.5308
X3.0116Y-3.8308
X3.3116Y-3.8308
X1.3616Y-2.6308
X1.6616Y-2.6308
T3
X2.8232Y-5.0822
X2.8232Y-5.1322
X2.8232Y-5.1822
X2.8376Y-3.7808
X2.8376Y-3.8308
X2.8376Y-3.8808
X2.8232Y-4.4678
X2.8232Y-4.5178
X2.8232Y-4.5678
X2.819Y-3.1298
X2.819Y-3.1798
X2.819Y-3.2298
T4
X2.2398Y-4.4137
X2.2398Y-4.6106
X2.2336Y-3.7455
X2.2336Y-3.9424
X2.2496Y-5.0383
X2.2496Y-5.2352
X2.223Y-3.1133
X2.223Y-3.3102
T5
X4.5Y-2.95
X4.5Y-3.05
X4.5Y-3.15
X4.5Y-3.25
X4.5Y-3.35
X4.5Y-3.45
X4.5Y-3.55
X4.5Y-3.65
X4.5Y-3.75
X4.5Y-3.85
X4.5Y-3.95
X4.5Y-4.05
X4.5Y-4.15
X4.5Y-4.25
X4.5Y-4.35
X4.5Y-4.45
X4.5Y-4.55
X4.5Y-4.65
X4.5Y-4.75
X4.5Y-4.85
X4.6Y-2.95
X4.6Y-3.05
X4.6Y-3.15
X4.6Y-3.25
X4.6Y-3.35
X4.6Y-3.45
X4.6Y-3.55
X4.6Y-3.65
X4.6Y-3.75
X4.6Y-3.85
X4.6Y-3.95
X4.6Y-4.05
X4.6Y-4.15
X4.6Y-4.25
X4.6Y-4.35
X4.6Y-4.45
X4.6Y-4.55
X4.6Y-4.65
X4.6Y-4.75
X4.6Y-4.85
T6
X1.45Y-5.75
X1.45Y-5.85
X1.45Y-5.95
T7
X1.1064Y-5.0936
X1.1064Y-5.2314
X1.091Y-3.748
X1.091Y-3.8858
X1.1Y-2.4744
X1.1Y-2.6122
X1.1Y-2.75
X1.0926Y-3.1262
X1.0926Y-3.264
X1.1064Y-5.7936
X1.1064Y-5.9314
X1.0996Y-4.42
X1.0996Y-4.5578
T8
X1.4441Y-2.9732
X1.4441Y-3.4456
X1.9245Y-2.9732
X1.9245Y-3.4456
X2.0032Y-3.2094
X1.4459Y-3.6228
X1.4459Y-4.0952
X1.9263Y-3.6228
X1.9263Y-4.0952
X2.005Y-3.859
X1.4511Y-4.9334
X1.4511Y-5.4058
X1.9315Y-4.9334
X1.9315Y-5.4058
X2.0102Y-5.1696
X1.4477Y-4.2724
X1.4477Y-4.7448
X1.9281Y-4.2724
X1.9281Y-4.7448
X2.0068Y-4.5086
T9
X2.4718Y-3.6516
X2.4676Y-4.957
X2.4676Y-5.357
X2.469Y-4.3302
X2.469Y-4.7302
X2.4694Y-3.0084
X2.4694Y-3.4084
X2.4718Y-4.0516
T0
M30
