G04 #@! TF.GenerationSoftware,KiCad,Pcbnew,(5.1.5)-3*
G04 #@! TF.CreationDate,2020-05-30T00:12:56+02:00*
G04 #@! TF.ProjectId,BOTLAND-1-INTELIGENTNY-DOM,424f544c-414e-4442-9d31-2d494e54454c,rev?*
G04 #@! TF.SameCoordinates,Original*
G04 #@! TF.FileFunction,Copper,L1,Top*
G04 #@! TF.FilePolarity,Positive*
%FSLAX46Y46*%
G04 Gerber Fmt 4.6, Leading zero omitted, Abs format (unit mm)*
G04 Created by KiCad (PCBNEW (5.1.5)-3) date 2020-05-30 00:12:56*
%MOMM*%
%LPD*%
G04 APERTURE LIST*
%ADD10C,1.400000*%
%ADD11O,1.400000X1.400000*%
%ADD12C,2.400000*%
%ADD13R,2.400000X2.400000*%
%ADD14O,2.000000X1.905000*%
%ADD15R,2.000000X1.905000*%
%ADD16O,1.700000X1.700000*%
%ADD17R,1.700000X1.700000*%
%ADD18C,0.100000*%
%ADD19R,1.500000X1.050000*%
%ADD20R,2.800000X2.800000*%
%ADD21O,2.800000X2.800000*%
%ADD22C,1.600000*%
%ADD23C,3.000000*%
%ADD24C,0.800000*%
%ADD25C,0.400000*%
%ADD26C,0.750000*%
G04 APERTURE END LIST*
D10*
X34584640Y-66822320D03*
D11*
X42204640Y-66822320D03*
D12*
X27940000Y-62850000D03*
X27940000Y-66350000D03*
D13*
X27940000Y-69850000D03*
D12*
X28102560Y-147157560D03*
D13*
X28102560Y-150657560D03*
D14*
X36830000Y-146050000D03*
X36830000Y-148590000D03*
D15*
X36830000Y-151130000D03*
D16*
X114300000Y-123190000D03*
X116840000Y-123190000D03*
X114300000Y-120650000D03*
X116840000Y-120650000D03*
X114300000Y-118110000D03*
X116840000Y-118110000D03*
X114300000Y-115570000D03*
X116840000Y-115570000D03*
X114300000Y-113030000D03*
X116840000Y-113030000D03*
X114300000Y-110490000D03*
X116840000Y-110490000D03*
X114300000Y-107950000D03*
X116840000Y-107950000D03*
X114300000Y-105410000D03*
X116840000Y-105410000D03*
X114300000Y-102870000D03*
X116840000Y-102870000D03*
X114300000Y-100330000D03*
X116840000Y-100330000D03*
X114300000Y-97790000D03*
X116840000Y-97790000D03*
X114300000Y-95250000D03*
X116840000Y-95250000D03*
X114300000Y-92710000D03*
X116840000Y-92710000D03*
X114300000Y-90170000D03*
X116840000Y-90170000D03*
X114300000Y-87630000D03*
X116840000Y-87630000D03*
X114300000Y-85090000D03*
X116840000Y-85090000D03*
X114300000Y-82550000D03*
X116840000Y-82550000D03*
X114300000Y-80010000D03*
X116840000Y-80010000D03*
X114300000Y-77470000D03*
X116840000Y-77470000D03*
X114300000Y-74930000D03*
D17*
X116840000Y-74930000D03*
D10*
X76494640Y-130322320D03*
D11*
X84114640Y-130322320D03*
D10*
X76494640Y-115082320D03*
D11*
X84114640Y-115082320D03*
D10*
X76494640Y-97302320D03*
D11*
X84114640Y-97302320D03*
X84114640Y-80792320D03*
D10*
X76494640Y-80792320D03*
G04 #@! TA.AperFunction,ComponentPad*
D18*
G36*
X72222509Y-129834144D02*
G01*
X72247991Y-129837924D01*
X72272980Y-129844183D01*
X72297234Y-129852862D01*
X72320522Y-129863876D01*
X72342617Y-129877119D01*
X72363308Y-129892465D01*
X72382396Y-129909764D01*
X72399695Y-129928852D01*
X72415041Y-129949543D01*
X72428284Y-129971638D01*
X72439298Y-129994926D01*
X72447977Y-130019180D01*
X72454236Y-130044169D01*
X72458016Y-130069651D01*
X72459280Y-130095380D01*
X72459280Y-130620380D01*
X72458016Y-130646109D01*
X72454236Y-130671591D01*
X72447977Y-130696580D01*
X72439298Y-130720834D01*
X72428284Y-130744122D01*
X72415041Y-130766217D01*
X72399695Y-130786908D01*
X72382396Y-130805996D01*
X72363308Y-130823295D01*
X72342617Y-130838641D01*
X72320522Y-130851884D01*
X72297234Y-130862898D01*
X72272980Y-130871577D01*
X72247991Y-130877836D01*
X72222509Y-130881616D01*
X72196780Y-130882880D01*
X71221780Y-130882880D01*
X71196051Y-130881616D01*
X71170569Y-130877836D01*
X71145580Y-130871577D01*
X71121326Y-130862898D01*
X71098038Y-130851884D01*
X71075943Y-130838641D01*
X71055252Y-130823295D01*
X71036164Y-130805996D01*
X71018865Y-130786908D01*
X71003519Y-130766217D01*
X70990276Y-130744122D01*
X70979262Y-130720834D01*
X70970583Y-130696580D01*
X70964324Y-130671591D01*
X70960544Y-130646109D01*
X70959280Y-130620380D01*
X70959280Y-130095380D01*
X70960544Y-130069651D01*
X70964324Y-130044169D01*
X70970583Y-130019180D01*
X70979262Y-129994926D01*
X70990276Y-129971638D01*
X71003519Y-129949543D01*
X71018865Y-129928852D01*
X71036164Y-129909764D01*
X71055252Y-129892465D01*
X71075943Y-129877119D01*
X71098038Y-129863876D01*
X71121326Y-129852862D01*
X71145580Y-129844183D01*
X71170569Y-129837924D01*
X71196051Y-129834144D01*
X71221780Y-129832880D01*
X72196780Y-129832880D01*
X72222509Y-129834144D01*
G37*
G04 #@! TD.AperFunction*
G04 #@! TA.AperFunction,ComponentPad*
G36*
X72222509Y-128564144D02*
G01*
X72247991Y-128567924D01*
X72272980Y-128574183D01*
X72297234Y-128582862D01*
X72320522Y-128593876D01*
X72342617Y-128607119D01*
X72363308Y-128622465D01*
X72382396Y-128639764D01*
X72399695Y-128658852D01*
X72415041Y-128679543D01*
X72428284Y-128701638D01*
X72439298Y-128724926D01*
X72447977Y-128749180D01*
X72454236Y-128774169D01*
X72458016Y-128799651D01*
X72459280Y-128825380D01*
X72459280Y-129350380D01*
X72458016Y-129376109D01*
X72454236Y-129401591D01*
X72447977Y-129426580D01*
X72439298Y-129450834D01*
X72428284Y-129474122D01*
X72415041Y-129496217D01*
X72399695Y-129516908D01*
X72382396Y-129535996D01*
X72363308Y-129553295D01*
X72342617Y-129568641D01*
X72320522Y-129581884D01*
X72297234Y-129592898D01*
X72272980Y-129601577D01*
X72247991Y-129607836D01*
X72222509Y-129611616D01*
X72196780Y-129612880D01*
X71221780Y-129612880D01*
X71196051Y-129611616D01*
X71170569Y-129607836D01*
X71145580Y-129601577D01*
X71121326Y-129592898D01*
X71098038Y-129581884D01*
X71075943Y-129568641D01*
X71055252Y-129553295D01*
X71036164Y-129535996D01*
X71018865Y-129516908D01*
X71003519Y-129496217D01*
X70990276Y-129474122D01*
X70979262Y-129450834D01*
X70970583Y-129426580D01*
X70964324Y-129401591D01*
X70960544Y-129376109D01*
X70959280Y-129350380D01*
X70959280Y-128825380D01*
X70960544Y-128799651D01*
X70964324Y-128774169D01*
X70970583Y-128749180D01*
X70979262Y-128724926D01*
X70990276Y-128701638D01*
X71003519Y-128679543D01*
X71018865Y-128658852D01*
X71036164Y-128639764D01*
X71055252Y-128622465D01*
X71075943Y-128607119D01*
X71098038Y-128593876D01*
X71121326Y-128582862D01*
X71145580Y-128574183D01*
X71170569Y-128567924D01*
X71196051Y-128564144D01*
X71221780Y-128562880D01*
X72196780Y-128562880D01*
X72222509Y-128564144D01*
G37*
G04 #@! TD.AperFunction*
D19*
X71709280Y-131627880D03*
G04 #@! TA.AperFunction,ComponentPad*
D18*
G36*
X72222509Y-114228384D02*
G01*
X72247991Y-114232164D01*
X72272980Y-114238423D01*
X72297234Y-114247102D01*
X72320522Y-114258116D01*
X72342617Y-114271359D01*
X72363308Y-114286705D01*
X72382396Y-114304004D01*
X72399695Y-114323092D01*
X72415041Y-114343783D01*
X72428284Y-114365878D01*
X72439298Y-114389166D01*
X72447977Y-114413420D01*
X72454236Y-114438409D01*
X72458016Y-114463891D01*
X72459280Y-114489620D01*
X72459280Y-115014620D01*
X72458016Y-115040349D01*
X72454236Y-115065831D01*
X72447977Y-115090820D01*
X72439298Y-115115074D01*
X72428284Y-115138362D01*
X72415041Y-115160457D01*
X72399695Y-115181148D01*
X72382396Y-115200236D01*
X72363308Y-115217535D01*
X72342617Y-115232881D01*
X72320522Y-115246124D01*
X72297234Y-115257138D01*
X72272980Y-115265817D01*
X72247991Y-115272076D01*
X72222509Y-115275856D01*
X72196780Y-115277120D01*
X71221780Y-115277120D01*
X71196051Y-115275856D01*
X71170569Y-115272076D01*
X71145580Y-115265817D01*
X71121326Y-115257138D01*
X71098038Y-115246124D01*
X71075943Y-115232881D01*
X71055252Y-115217535D01*
X71036164Y-115200236D01*
X71018865Y-115181148D01*
X71003519Y-115160457D01*
X70990276Y-115138362D01*
X70979262Y-115115074D01*
X70970583Y-115090820D01*
X70964324Y-115065831D01*
X70960544Y-115040349D01*
X70959280Y-115014620D01*
X70959280Y-114489620D01*
X70960544Y-114463891D01*
X70964324Y-114438409D01*
X70970583Y-114413420D01*
X70979262Y-114389166D01*
X70990276Y-114365878D01*
X71003519Y-114343783D01*
X71018865Y-114323092D01*
X71036164Y-114304004D01*
X71055252Y-114286705D01*
X71075943Y-114271359D01*
X71098038Y-114258116D01*
X71121326Y-114247102D01*
X71145580Y-114238423D01*
X71170569Y-114232164D01*
X71196051Y-114228384D01*
X71221780Y-114227120D01*
X72196780Y-114227120D01*
X72222509Y-114228384D01*
G37*
G04 #@! TD.AperFunction*
G04 #@! TA.AperFunction,ComponentPad*
G36*
X72222509Y-112958384D02*
G01*
X72247991Y-112962164D01*
X72272980Y-112968423D01*
X72297234Y-112977102D01*
X72320522Y-112988116D01*
X72342617Y-113001359D01*
X72363308Y-113016705D01*
X72382396Y-113034004D01*
X72399695Y-113053092D01*
X72415041Y-113073783D01*
X72428284Y-113095878D01*
X72439298Y-113119166D01*
X72447977Y-113143420D01*
X72454236Y-113168409D01*
X72458016Y-113193891D01*
X72459280Y-113219620D01*
X72459280Y-113744620D01*
X72458016Y-113770349D01*
X72454236Y-113795831D01*
X72447977Y-113820820D01*
X72439298Y-113845074D01*
X72428284Y-113868362D01*
X72415041Y-113890457D01*
X72399695Y-113911148D01*
X72382396Y-113930236D01*
X72363308Y-113947535D01*
X72342617Y-113962881D01*
X72320522Y-113976124D01*
X72297234Y-113987138D01*
X72272980Y-113995817D01*
X72247991Y-114002076D01*
X72222509Y-114005856D01*
X72196780Y-114007120D01*
X71221780Y-114007120D01*
X71196051Y-114005856D01*
X71170569Y-114002076D01*
X71145580Y-113995817D01*
X71121326Y-113987138D01*
X71098038Y-113976124D01*
X71075943Y-113962881D01*
X71055252Y-113947535D01*
X71036164Y-113930236D01*
X71018865Y-113911148D01*
X71003519Y-113890457D01*
X70990276Y-113868362D01*
X70979262Y-113845074D01*
X70970583Y-113820820D01*
X70964324Y-113795831D01*
X70960544Y-113770349D01*
X70959280Y-113744620D01*
X70959280Y-113219620D01*
X70960544Y-113193891D01*
X70964324Y-113168409D01*
X70970583Y-113143420D01*
X70979262Y-113119166D01*
X70990276Y-113095878D01*
X71003519Y-113073783D01*
X71018865Y-113053092D01*
X71036164Y-113034004D01*
X71055252Y-113016705D01*
X71075943Y-113001359D01*
X71098038Y-112988116D01*
X71121326Y-112977102D01*
X71145580Y-112968423D01*
X71170569Y-112962164D01*
X71196051Y-112958384D01*
X71221780Y-112957120D01*
X72196780Y-112957120D01*
X72222509Y-112958384D01*
G37*
G04 #@! TD.AperFunction*
D19*
X71709280Y-116022120D03*
G04 #@! TA.AperFunction,ComponentPad*
D18*
G36*
X72588269Y-96778584D02*
G01*
X72613751Y-96782364D01*
X72638740Y-96788623D01*
X72662994Y-96797302D01*
X72686282Y-96808316D01*
X72708377Y-96821559D01*
X72729068Y-96836905D01*
X72748156Y-96854204D01*
X72765455Y-96873292D01*
X72780801Y-96893983D01*
X72794044Y-96916078D01*
X72805058Y-96939366D01*
X72813737Y-96963620D01*
X72819996Y-96988609D01*
X72823776Y-97014091D01*
X72825040Y-97039820D01*
X72825040Y-97564820D01*
X72823776Y-97590549D01*
X72819996Y-97616031D01*
X72813737Y-97641020D01*
X72805058Y-97665274D01*
X72794044Y-97688562D01*
X72780801Y-97710657D01*
X72765455Y-97731348D01*
X72748156Y-97750436D01*
X72729068Y-97767735D01*
X72708377Y-97783081D01*
X72686282Y-97796324D01*
X72662994Y-97807338D01*
X72638740Y-97816017D01*
X72613751Y-97822276D01*
X72588269Y-97826056D01*
X72562540Y-97827320D01*
X71587540Y-97827320D01*
X71561811Y-97826056D01*
X71536329Y-97822276D01*
X71511340Y-97816017D01*
X71487086Y-97807338D01*
X71463798Y-97796324D01*
X71441703Y-97783081D01*
X71421012Y-97767735D01*
X71401924Y-97750436D01*
X71384625Y-97731348D01*
X71369279Y-97710657D01*
X71356036Y-97688562D01*
X71345022Y-97665274D01*
X71336343Y-97641020D01*
X71330084Y-97616031D01*
X71326304Y-97590549D01*
X71325040Y-97564820D01*
X71325040Y-97039820D01*
X71326304Y-97014091D01*
X71330084Y-96988609D01*
X71336343Y-96963620D01*
X71345022Y-96939366D01*
X71356036Y-96916078D01*
X71369279Y-96893983D01*
X71384625Y-96873292D01*
X71401924Y-96854204D01*
X71421012Y-96836905D01*
X71441703Y-96821559D01*
X71463798Y-96808316D01*
X71487086Y-96797302D01*
X71511340Y-96788623D01*
X71536329Y-96782364D01*
X71561811Y-96778584D01*
X71587540Y-96777320D01*
X72562540Y-96777320D01*
X72588269Y-96778584D01*
G37*
G04 #@! TD.AperFunction*
G04 #@! TA.AperFunction,ComponentPad*
G36*
X72588269Y-95508584D02*
G01*
X72613751Y-95512364D01*
X72638740Y-95518623D01*
X72662994Y-95527302D01*
X72686282Y-95538316D01*
X72708377Y-95551559D01*
X72729068Y-95566905D01*
X72748156Y-95584204D01*
X72765455Y-95603292D01*
X72780801Y-95623983D01*
X72794044Y-95646078D01*
X72805058Y-95669366D01*
X72813737Y-95693620D01*
X72819996Y-95718609D01*
X72823776Y-95744091D01*
X72825040Y-95769820D01*
X72825040Y-96294820D01*
X72823776Y-96320549D01*
X72819996Y-96346031D01*
X72813737Y-96371020D01*
X72805058Y-96395274D01*
X72794044Y-96418562D01*
X72780801Y-96440657D01*
X72765455Y-96461348D01*
X72748156Y-96480436D01*
X72729068Y-96497735D01*
X72708377Y-96513081D01*
X72686282Y-96526324D01*
X72662994Y-96537338D01*
X72638740Y-96546017D01*
X72613751Y-96552276D01*
X72588269Y-96556056D01*
X72562540Y-96557320D01*
X71587540Y-96557320D01*
X71561811Y-96556056D01*
X71536329Y-96552276D01*
X71511340Y-96546017D01*
X71487086Y-96537338D01*
X71463798Y-96526324D01*
X71441703Y-96513081D01*
X71421012Y-96497735D01*
X71401924Y-96480436D01*
X71384625Y-96461348D01*
X71369279Y-96440657D01*
X71356036Y-96418562D01*
X71345022Y-96395274D01*
X71336343Y-96371020D01*
X71330084Y-96346031D01*
X71326304Y-96320549D01*
X71325040Y-96294820D01*
X71325040Y-95769820D01*
X71326304Y-95744091D01*
X71330084Y-95718609D01*
X71336343Y-95693620D01*
X71345022Y-95669366D01*
X71356036Y-95646078D01*
X71369279Y-95623983D01*
X71384625Y-95603292D01*
X71401924Y-95584204D01*
X71421012Y-95566905D01*
X71441703Y-95551559D01*
X71463798Y-95538316D01*
X71487086Y-95527302D01*
X71511340Y-95518623D01*
X71536329Y-95512364D01*
X71561811Y-95508584D01*
X71587540Y-95507320D01*
X72562540Y-95507320D01*
X72588269Y-95508584D01*
G37*
G04 #@! TD.AperFunction*
D19*
X72075040Y-98572320D03*
X71602600Y-82036920D03*
G04 #@! TA.AperFunction,ComponentPad*
D18*
G36*
X72115829Y-78973184D02*
G01*
X72141311Y-78976964D01*
X72166300Y-78983223D01*
X72190554Y-78991902D01*
X72213842Y-79002916D01*
X72235937Y-79016159D01*
X72256628Y-79031505D01*
X72275716Y-79048804D01*
X72293015Y-79067892D01*
X72308361Y-79088583D01*
X72321604Y-79110678D01*
X72332618Y-79133966D01*
X72341297Y-79158220D01*
X72347556Y-79183209D01*
X72351336Y-79208691D01*
X72352600Y-79234420D01*
X72352600Y-79759420D01*
X72351336Y-79785149D01*
X72347556Y-79810631D01*
X72341297Y-79835620D01*
X72332618Y-79859874D01*
X72321604Y-79883162D01*
X72308361Y-79905257D01*
X72293015Y-79925948D01*
X72275716Y-79945036D01*
X72256628Y-79962335D01*
X72235937Y-79977681D01*
X72213842Y-79990924D01*
X72190554Y-80001938D01*
X72166300Y-80010617D01*
X72141311Y-80016876D01*
X72115829Y-80020656D01*
X72090100Y-80021920D01*
X71115100Y-80021920D01*
X71089371Y-80020656D01*
X71063889Y-80016876D01*
X71038900Y-80010617D01*
X71014646Y-80001938D01*
X70991358Y-79990924D01*
X70969263Y-79977681D01*
X70948572Y-79962335D01*
X70929484Y-79945036D01*
X70912185Y-79925948D01*
X70896839Y-79905257D01*
X70883596Y-79883162D01*
X70872582Y-79859874D01*
X70863903Y-79835620D01*
X70857644Y-79810631D01*
X70853864Y-79785149D01*
X70852600Y-79759420D01*
X70852600Y-79234420D01*
X70853864Y-79208691D01*
X70857644Y-79183209D01*
X70863903Y-79158220D01*
X70872582Y-79133966D01*
X70883596Y-79110678D01*
X70896839Y-79088583D01*
X70912185Y-79067892D01*
X70929484Y-79048804D01*
X70948572Y-79031505D01*
X70969263Y-79016159D01*
X70991358Y-79002916D01*
X71014646Y-78991902D01*
X71038900Y-78983223D01*
X71063889Y-78976964D01*
X71089371Y-78973184D01*
X71115100Y-78971920D01*
X72090100Y-78971920D01*
X72115829Y-78973184D01*
G37*
G04 #@! TD.AperFunction*
G04 #@! TA.AperFunction,ComponentPad*
G36*
X72115829Y-80243184D02*
G01*
X72141311Y-80246964D01*
X72166300Y-80253223D01*
X72190554Y-80261902D01*
X72213842Y-80272916D01*
X72235937Y-80286159D01*
X72256628Y-80301505D01*
X72275716Y-80318804D01*
X72293015Y-80337892D01*
X72308361Y-80358583D01*
X72321604Y-80380678D01*
X72332618Y-80403966D01*
X72341297Y-80428220D01*
X72347556Y-80453209D01*
X72351336Y-80478691D01*
X72352600Y-80504420D01*
X72352600Y-81029420D01*
X72351336Y-81055149D01*
X72347556Y-81080631D01*
X72341297Y-81105620D01*
X72332618Y-81129874D01*
X72321604Y-81153162D01*
X72308361Y-81175257D01*
X72293015Y-81195948D01*
X72275716Y-81215036D01*
X72256628Y-81232335D01*
X72235937Y-81247681D01*
X72213842Y-81260924D01*
X72190554Y-81271938D01*
X72166300Y-81280617D01*
X72141311Y-81286876D01*
X72115829Y-81290656D01*
X72090100Y-81291920D01*
X71115100Y-81291920D01*
X71089371Y-81290656D01*
X71063889Y-81286876D01*
X71038900Y-81280617D01*
X71014646Y-81271938D01*
X70991358Y-81260924D01*
X70969263Y-81247681D01*
X70948572Y-81232335D01*
X70929484Y-81215036D01*
X70912185Y-81195948D01*
X70896839Y-81175257D01*
X70883596Y-81153162D01*
X70872582Y-81129874D01*
X70863903Y-81105620D01*
X70857644Y-81080631D01*
X70853864Y-81055149D01*
X70852600Y-81029420D01*
X70852600Y-80504420D01*
X70853864Y-80478691D01*
X70857644Y-80453209D01*
X70863903Y-80428220D01*
X70872582Y-80403966D01*
X70883596Y-80380678D01*
X70896839Y-80358583D01*
X70912185Y-80337892D01*
X70929484Y-80318804D01*
X70948572Y-80301505D01*
X70969263Y-80286159D01*
X70991358Y-80272916D01*
X71014646Y-80261902D01*
X71038900Y-80253223D01*
X71063889Y-80246964D01*
X71089371Y-80243184D01*
X71115100Y-80241920D01*
X72090100Y-80241920D01*
X72115829Y-80243184D01*
G37*
G04 #@! TD.AperFunction*
D13*
X28102560Y-132877560D03*
D12*
X28102560Y-129377560D03*
D13*
X27929840Y-115768120D03*
D12*
X27929840Y-112268120D03*
D13*
X27711400Y-98699320D03*
D12*
X27711400Y-95199320D03*
X27752040Y-79405600D03*
D13*
X27752040Y-82905600D03*
D20*
X62677040Y-136067800D03*
D21*
X62677040Y-125907800D03*
D20*
X62712600Y-120147080D03*
D21*
X62712600Y-109987080D03*
D20*
X62783720Y-102910640D03*
D21*
X62783720Y-92750640D03*
X62722760Y-76413360D03*
D20*
X62722760Y-86573360D03*
D22*
X57139840Y-132974080D03*
X57139840Y-127974080D03*
X56890920Y-117109240D03*
X56890920Y-112109240D03*
X56733440Y-100136960D03*
X56733440Y-95136960D03*
X56464200Y-79079080D03*
X56464200Y-84079080D03*
D23*
X49059080Y-125307840D03*
X36859080Y-125307840D03*
X36859080Y-137307840D03*
X49059080Y-137307840D03*
X51059080Y-131307840D03*
X48972720Y-108518440D03*
X36772720Y-108518440D03*
X36772720Y-120518440D03*
X48972720Y-120518440D03*
X50972720Y-114518440D03*
X48927000Y-92018600D03*
X36727000Y-92018600D03*
X36727000Y-104018600D03*
X48927000Y-104018600D03*
X50927000Y-98018600D03*
X50881280Y-81518760D03*
X48881280Y-87518760D03*
X36681280Y-87518760D03*
X36681280Y-75518760D03*
X48881280Y-75518760D03*
D24*
X93492320Y-66822320D03*
X91440000Y-69850000D03*
D25*
X71709280Y-131627880D02*
X71709280Y-132760720D01*
X71709280Y-132760720D02*
X71120000Y-133350000D01*
X71120000Y-133350000D02*
X68580000Y-133350000D01*
X68580000Y-133350000D02*
X68580000Y-115570000D01*
X68580000Y-115570000D02*
X69850000Y-116840000D01*
X70667880Y-116022120D02*
X71709280Y-116022120D01*
X69850000Y-116840000D02*
X70667880Y-116022120D01*
X68580000Y-102067360D02*
X72075040Y-98572320D01*
X68580000Y-115570000D02*
X68580000Y-102067360D01*
X68580000Y-85059520D02*
X71602600Y-82036920D01*
X68580000Y-102067360D02*
X68580000Y-85059520D01*
D26*
X108732320Y-66822320D02*
X116840000Y-74930000D01*
X93492320Y-66822320D02*
X108732320Y-66822320D01*
X91440000Y-69850000D02*
X101600000Y-69850000D01*
X111760000Y-80010000D02*
X114300000Y-80010000D01*
X101600000Y-69850000D02*
X111760000Y-80010000D01*
X114300000Y-92710000D02*
X111760000Y-92710000D01*
X111760000Y-92710000D02*
X90170000Y-71120000D01*
X90170000Y-71120000D02*
X33020000Y-71120000D01*
X33020000Y-71120000D02*
X31750000Y-69850000D01*
X31750000Y-69850000D02*
X31750000Y-67310000D01*
X30790000Y-66350000D02*
X27940000Y-66350000D01*
X31750000Y-67310000D02*
X30790000Y-66350000D01*
D25*
X71709280Y-131627880D02*
X71709280Y-134030720D01*
X71709280Y-134030720D02*
X64770000Y-140970000D01*
X64770000Y-140970000D02*
X36830000Y-140970000D01*
X36830000Y-140970000D02*
X34290000Y-143510000D01*
X34290000Y-143510000D02*
X34290000Y-147320000D01*
X35560000Y-148590000D02*
X36830000Y-148590000D01*
X34290000Y-147320000D02*
X35560000Y-148590000D01*
X62677040Y-136067800D02*
X65862200Y-136067800D01*
X65862200Y-136067800D02*
X66040000Y-135890000D01*
X66040000Y-135890000D02*
X66040000Y-120650000D01*
X63215520Y-120650000D02*
X62712600Y-120147080D01*
X66040000Y-120650000D02*
X63215520Y-120650000D01*
X66040000Y-120650000D02*
X66040000Y-102870000D01*
X62824360Y-102870000D02*
X62783720Y-102910640D01*
X66040000Y-102870000D02*
X62824360Y-102870000D01*
X66040000Y-102870000D02*
X66040000Y-86360000D01*
X62936120Y-86360000D02*
X62722760Y-86573360D01*
X66040000Y-86360000D02*
X62936120Y-86360000D01*
M02*
