G04 #@! TF.GenerationSoftware,KiCad,Pcbnew,(5.1.6)-1*
G04 #@! TF.CreationDate,2020-05-29T17:12:39+02:00*
G04 #@! TF.ProjectId,BOTLAND-1-INTELIGENTNY-DOM,424f544c-414e-4442-9d31-2d494e54454c,rev?*
G04 #@! TF.SameCoordinates,Original*
G04 #@! TF.FileFunction,Legend,Top*
G04 #@! TF.FilePolarity,Positive*
%FSLAX46Y46*%
G04 Gerber Fmt 4.6, Leading zero omitted, Abs format (unit mm)*
G04 Created by KiCad (PCBNEW (5.1.6)-1) date 2020-05-29 17:12:39*
%MOMM*%
%LPD*%
G01*
G04 APERTURE LIST*
%ADD10C,0.300000*%
%ADD11C,0.120000*%
%ADD12C,0.150000*%
G04 APERTURE END LIST*
D10*
X25527142Y-72910000D02*
X25384285Y-72838571D01*
X25170000Y-72838571D01*
X24955714Y-72910000D01*
X24812857Y-73052857D01*
X24741428Y-73195714D01*
X24670000Y-73481428D01*
X24670000Y-73695714D01*
X24741428Y-73981428D01*
X24812857Y-74124285D01*
X24955714Y-74267142D01*
X25170000Y-74338571D01*
X25312857Y-74338571D01*
X25527142Y-74267142D01*
X25598571Y-74195714D01*
X25598571Y-73695714D01*
X25312857Y-73695714D01*
X26241428Y-74338571D02*
X26241428Y-72838571D01*
X27098571Y-74338571D01*
X27098571Y-72838571D01*
X27812857Y-74338571D02*
X27812857Y-72838571D01*
X28170000Y-72838571D01*
X28384285Y-72910000D01*
X28527142Y-73052857D01*
X28598571Y-73195714D01*
X28670000Y-73481428D01*
X28670000Y-73695714D01*
X28598571Y-73981428D01*
X28527142Y-74124285D01*
X28384285Y-74267142D01*
X28170000Y-74338571D01*
X27812857Y-74338571D01*
X24670000Y-58598571D02*
X25170000Y-60098571D01*
X25670000Y-58598571D01*
X27027142Y-59955714D02*
X26955714Y-60027142D01*
X26741428Y-60098571D01*
X26598571Y-60098571D01*
X26384285Y-60027142D01*
X26241428Y-59884285D01*
X26170000Y-59741428D01*
X26098571Y-59455714D01*
X26098571Y-59241428D01*
X26170000Y-58955714D01*
X26241428Y-58812857D01*
X26384285Y-58670000D01*
X26598571Y-58598571D01*
X26741428Y-58598571D01*
X26955714Y-58670000D01*
X27027142Y-58741428D01*
X28527142Y-59955714D02*
X28455714Y-60027142D01*
X28241428Y-60098571D01*
X28098571Y-60098571D01*
X27884285Y-60027142D01*
X27741428Y-59884285D01*
X27670000Y-59741428D01*
X27598571Y-59455714D01*
X27598571Y-59241428D01*
X27670000Y-58955714D01*
X27741428Y-58812857D01*
X27884285Y-58670000D01*
X28098571Y-58598571D01*
X28241428Y-58598571D01*
X28455714Y-58670000D01*
X28527142Y-58741428D01*
X25527142Y-142760000D02*
X25384285Y-142688571D01*
X25170000Y-142688571D01*
X24955714Y-142760000D01*
X24812857Y-142902857D01*
X24741428Y-143045714D01*
X24670000Y-143331428D01*
X24670000Y-143545714D01*
X24741428Y-143831428D01*
X24812857Y-143974285D01*
X24955714Y-144117142D01*
X25170000Y-144188571D01*
X25312857Y-144188571D01*
X25527142Y-144117142D01*
X25598571Y-144045714D01*
X25598571Y-143545714D01*
X25312857Y-143545714D01*
X26241428Y-144188571D02*
X26241428Y-142688571D01*
X27098571Y-144188571D01*
X27098571Y-142688571D01*
X27812857Y-144188571D02*
X27812857Y-142688571D01*
X28170000Y-142688571D01*
X28384285Y-142760000D01*
X28527142Y-142902857D01*
X28598571Y-143045714D01*
X28670000Y-143331428D01*
X28670000Y-143545714D01*
X28598571Y-143831428D01*
X28527142Y-143974285D01*
X28384285Y-144117142D01*
X28170000Y-144188571D01*
X27812857Y-144188571D01*
X24670000Y-154118571D02*
X25170000Y-155618571D01*
X25670000Y-154118571D01*
X27027142Y-155475714D02*
X26955714Y-155547142D01*
X26741428Y-155618571D01*
X26598571Y-155618571D01*
X26384285Y-155547142D01*
X26241428Y-155404285D01*
X26170000Y-155261428D01*
X26098571Y-154975714D01*
X26098571Y-154761428D01*
X26170000Y-154475714D01*
X26241428Y-154332857D01*
X26384285Y-154190000D01*
X26598571Y-154118571D01*
X26741428Y-154118571D01*
X26955714Y-154190000D01*
X27027142Y-154261428D01*
X28527142Y-155475714D02*
X28455714Y-155547142D01*
X28241428Y-155618571D01*
X28098571Y-155618571D01*
X27884285Y-155547142D01*
X27741428Y-155404285D01*
X27670000Y-155261428D01*
X27598571Y-154975714D01*
X27598571Y-154761428D01*
X27670000Y-154475714D01*
X27741428Y-154332857D01*
X27884285Y-154190000D01*
X28098571Y-154118571D01*
X28241428Y-154118571D01*
X28455714Y-154190000D01*
X28527142Y-154261428D01*
D11*
X41264640Y-66822320D02*
X40314640Y-66822320D01*
X35524640Y-66822320D02*
X36474640Y-66822320D01*
X40314640Y-65902320D02*
X36474640Y-65902320D01*
X40314640Y-67742320D02*
X40314640Y-65902320D01*
X36474640Y-67742320D02*
X40314640Y-67742320D01*
X36474640Y-65902320D02*
X36474640Y-67742320D01*
X31840000Y-72250000D02*
X31840000Y-70750000D01*
X30100000Y-72250000D02*
X31840000Y-72250000D01*
X24480000Y-60690000D02*
X31600000Y-60690000D01*
X24480000Y-72010000D02*
X31600000Y-72010000D01*
X31600000Y-72010000D02*
X31600000Y-60690000D01*
X24480000Y-72010000D02*
X24480000Y-60690000D01*
X30040000Y-72010000D02*
X30040000Y-60690000D01*
X29495000Y-62850000D02*
G75*
G03*
X29495000Y-62850000I-1555000J0D01*
G01*
X29495000Y-66350000D02*
G75*
G03*
X29495000Y-66350000I-1555000J0D01*
G01*
X29495492Y-69822989D02*
G75*
G02*
X29372000Y-70458000I-1555492J-27011D01*
G01*
X28547742Y-71282109D02*
G75*
G02*
X27332000Y-71282000I-607742J1432109D01*
G01*
X26507891Y-70457742D02*
G75*
G02*
X26508000Y-69242000I1432109J607742D01*
G01*
X27332258Y-68417891D02*
G75*
G02*
X28548000Y-68418000I607742J-1432109D01*
G01*
X29371385Y-69242413D02*
G75*
G02*
X29495000Y-69850000I-1431385J-607587D01*
G01*
X29657560Y-147157560D02*
G75*
G03*
X29657560Y-147157560I-1555000J0D01*
G01*
X30202560Y-152817560D02*
X30202560Y-144997560D01*
X24642560Y-152817560D02*
X24642560Y-144997560D01*
X31762560Y-152817560D02*
X31762560Y-144997560D01*
X24642560Y-152817560D02*
X31762560Y-152817560D01*
X24642560Y-144997560D02*
X31762560Y-144997560D01*
X30262560Y-153057560D02*
X32002560Y-153057560D01*
X32002560Y-153057560D02*
X32002560Y-151557560D01*
X29658052Y-150630549D02*
G75*
G02*
X29534560Y-151265560I-1555492J-27011D01*
G01*
X28710302Y-152089669D02*
G75*
G02*
X27494560Y-152089560I-607742J1432109D01*
G01*
X26670451Y-151265302D02*
G75*
G02*
X26670560Y-150049560I1432109J607742D01*
G01*
X27494818Y-149225451D02*
G75*
G02*
X28710560Y-149225560I607742J-1432109D01*
G01*
X29533945Y-150049973D02*
G75*
G02*
X29657560Y-150657560I-1431385J-607587D01*
G01*
X33560000Y-146739000D02*
X35070000Y-146739000D01*
X33560000Y-150440000D02*
X35070000Y-150440000D01*
X35070000Y-153710000D02*
X35070000Y-143470000D01*
X33560000Y-143470000D02*
X38201000Y-143470000D01*
X33560000Y-153710000D02*
X38201000Y-153710000D01*
X38201000Y-153710000D02*
X38201000Y-143470000D01*
X33560000Y-153710000D02*
X33560000Y-143470000D01*
X116840000Y-73600000D02*
X118170000Y-73600000D01*
X118170000Y-73600000D02*
X118170000Y-74930000D01*
X115570000Y-73600000D02*
X115570000Y-76200000D01*
X115570000Y-76200000D02*
X118170000Y-76200000D01*
X118170000Y-76200000D02*
X118170000Y-124520000D01*
X112970000Y-124520000D02*
X118170000Y-124520000D01*
X112970000Y-73600000D02*
X112970000Y-124520000D01*
X112970000Y-73600000D02*
X115570000Y-73600000D01*
X83174640Y-130322320D02*
X82224640Y-130322320D01*
X77434640Y-130322320D02*
X78384640Y-130322320D01*
X82224640Y-129402320D02*
X78384640Y-129402320D01*
X82224640Y-131242320D02*
X82224640Y-129402320D01*
X78384640Y-131242320D02*
X82224640Y-131242320D01*
X78384640Y-129402320D02*
X78384640Y-131242320D01*
X83174640Y-115082320D02*
X82224640Y-115082320D01*
X77434640Y-115082320D02*
X78384640Y-115082320D01*
X82224640Y-114162320D02*
X78384640Y-114162320D01*
X82224640Y-116002320D02*
X82224640Y-114162320D01*
X78384640Y-116002320D02*
X82224640Y-116002320D01*
X78384640Y-114162320D02*
X78384640Y-116002320D01*
X83174640Y-97302320D02*
X82224640Y-97302320D01*
X77434640Y-97302320D02*
X78384640Y-97302320D01*
X82224640Y-96382320D02*
X78384640Y-96382320D01*
X82224640Y-98222320D02*
X82224640Y-96382320D01*
X78384640Y-98222320D02*
X82224640Y-98222320D01*
X78384640Y-96382320D02*
X78384640Y-98222320D01*
X83174640Y-80792320D02*
X82224640Y-80792320D01*
X77434640Y-80792320D02*
X78384640Y-80792320D01*
X82224640Y-79872320D02*
X78384640Y-79872320D01*
X82224640Y-81712320D02*
X82224640Y-79872320D01*
X78384640Y-81712320D02*
X82224640Y-81712320D01*
X78384640Y-79872320D02*
X78384640Y-81712320D01*
X73409280Y-132377880D02*
X73409280Y-128527880D01*
X73399402Y-128489269D02*
G75*
G03*
X73409280Y-132377880I-1690122J-1948611D01*
G01*
X73409280Y-116772120D02*
X73409280Y-112922120D01*
X73399402Y-112883509D02*
G75*
G03*
X73409280Y-116772120I-1690122J-1948611D01*
G01*
X73775040Y-99322320D02*
X73775040Y-95472320D01*
X73765162Y-95433709D02*
G75*
G03*
X73775040Y-99322320I-1690122J-1948611D01*
G01*
X73302600Y-82786920D02*
X73302600Y-78936920D01*
X73292722Y-78898309D02*
G75*
G03*
X73302600Y-82786920I-1690122J-1948611D01*
G01*
X29657560Y-129377560D02*
G75*
G03*
X29657560Y-129377560I-1555000J0D01*
G01*
X30202560Y-135037560D02*
X30202560Y-127217560D01*
X24642560Y-135037560D02*
X24642560Y-127217560D01*
X31762560Y-135037560D02*
X31762560Y-127217560D01*
X24642560Y-135037560D02*
X31762560Y-135037560D01*
X24642560Y-127217560D02*
X31762560Y-127217560D01*
X30262560Y-135277560D02*
X32002560Y-135277560D01*
X32002560Y-135277560D02*
X32002560Y-133777560D01*
X29533945Y-132269973D02*
G75*
G02*
X29657560Y-132877560I-1431385J-607587D01*
G01*
X27494818Y-131445451D02*
G75*
G02*
X28710560Y-131445560I607742J-1432109D01*
G01*
X26670451Y-133485302D02*
G75*
G02*
X26670560Y-132269560I1432109J607742D01*
G01*
X28710302Y-134309669D02*
G75*
G02*
X27494560Y-134309560I-607742J1432109D01*
G01*
X29658052Y-132850549D02*
G75*
G02*
X29534560Y-133485560I-1555492J-27011D01*
G01*
X29484840Y-112268120D02*
G75*
G03*
X29484840Y-112268120I-1555000J0D01*
G01*
X30029840Y-117928120D02*
X30029840Y-110108120D01*
X24469840Y-117928120D02*
X24469840Y-110108120D01*
X31589840Y-117928120D02*
X31589840Y-110108120D01*
X24469840Y-117928120D02*
X31589840Y-117928120D01*
X24469840Y-110108120D02*
X31589840Y-110108120D01*
X30089840Y-118168120D02*
X31829840Y-118168120D01*
X31829840Y-118168120D02*
X31829840Y-116668120D01*
X29361225Y-115160533D02*
G75*
G02*
X29484840Y-115768120I-1431385J-607587D01*
G01*
X27322098Y-114336011D02*
G75*
G02*
X28537840Y-114336120I607742J-1432109D01*
G01*
X26497731Y-116375862D02*
G75*
G02*
X26497840Y-115160120I1432109J607742D01*
G01*
X28537582Y-117200229D02*
G75*
G02*
X27321840Y-117200120I-607742J1432109D01*
G01*
X29485332Y-115741109D02*
G75*
G02*
X29361840Y-116376120I-1555492J-27011D01*
G01*
X29266400Y-95199320D02*
G75*
G03*
X29266400Y-95199320I-1555000J0D01*
G01*
X29811400Y-100859320D02*
X29811400Y-93039320D01*
X24251400Y-100859320D02*
X24251400Y-93039320D01*
X31371400Y-100859320D02*
X31371400Y-93039320D01*
X24251400Y-100859320D02*
X31371400Y-100859320D01*
X24251400Y-93039320D02*
X31371400Y-93039320D01*
X29871400Y-101099320D02*
X31611400Y-101099320D01*
X31611400Y-101099320D02*
X31611400Y-99599320D01*
X29142785Y-98091733D02*
G75*
G02*
X29266400Y-98699320I-1431385J-607587D01*
G01*
X27103658Y-97267211D02*
G75*
G02*
X28319400Y-97267320I607742J-1432109D01*
G01*
X26279291Y-99307062D02*
G75*
G02*
X26279400Y-98091320I1432109J607742D01*
G01*
X28319142Y-100131429D02*
G75*
G02*
X27103400Y-100131320I-607742J1432109D01*
G01*
X29266892Y-98672309D02*
G75*
G02*
X29143400Y-99307320I-1555492J-27011D01*
G01*
X31652040Y-85305600D02*
X31652040Y-83805600D01*
X29912040Y-85305600D02*
X31652040Y-85305600D01*
X24292040Y-77245600D02*
X31412040Y-77245600D01*
X24292040Y-85065600D02*
X31412040Y-85065600D01*
X31412040Y-85065600D02*
X31412040Y-77245600D01*
X24292040Y-85065600D02*
X24292040Y-77245600D01*
X29852040Y-85065600D02*
X29852040Y-77245600D01*
X29307040Y-79405600D02*
G75*
G03*
X29307040Y-79405600I-1555000J0D01*
G01*
X29307532Y-82878589D02*
G75*
G02*
X29184040Y-83513600I-1555492J-27011D01*
G01*
X28359782Y-84337709D02*
G75*
G02*
X27144040Y-84337600I-607742J1432109D01*
G01*
X26319931Y-83513342D02*
G75*
G02*
X26320040Y-82297600I1432109J607742D01*
G01*
X27144298Y-81473491D02*
G75*
G02*
X28360040Y-81473600I607742J-1432109D01*
G01*
X29183425Y-82298013D02*
G75*
G02*
X29307040Y-82905600I-1431385J-607587D01*
G01*
X61037040Y-135557800D02*
X60707040Y-135557800D01*
X60707040Y-135557800D02*
X60707040Y-126417800D01*
X60707040Y-126417800D02*
X61037040Y-126417800D01*
X64317040Y-135557800D02*
X64647040Y-135557800D01*
X64647040Y-135557800D02*
X64647040Y-126417800D01*
X64647040Y-126417800D02*
X64317040Y-126417800D01*
X60707040Y-134102800D02*
X64647040Y-134102800D01*
X60707040Y-133982800D02*
X64647040Y-133982800D01*
X60707040Y-134222800D02*
X64647040Y-134222800D01*
X61072600Y-119637080D02*
X60742600Y-119637080D01*
X60742600Y-119637080D02*
X60742600Y-110497080D01*
X60742600Y-110497080D02*
X61072600Y-110497080D01*
X64352600Y-119637080D02*
X64682600Y-119637080D01*
X64682600Y-119637080D02*
X64682600Y-110497080D01*
X64682600Y-110497080D02*
X64352600Y-110497080D01*
X60742600Y-118182080D02*
X64682600Y-118182080D01*
X60742600Y-118062080D02*
X64682600Y-118062080D01*
X60742600Y-118302080D02*
X64682600Y-118302080D01*
X61143720Y-102400640D02*
X60813720Y-102400640D01*
X60813720Y-102400640D02*
X60813720Y-93260640D01*
X60813720Y-93260640D02*
X61143720Y-93260640D01*
X64423720Y-102400640D02*
X64753720Y-102400640D01*
X64753720Y-102400640D02*
X64753720Y-93260640D01*
X64753720Y-93260640D02*
X64423720Y-93260640D01*
X60813720Y-100945640D02*
X64753720Y-100945640D01*
X60813720Y-100825640D02*
X64753720Y-100825640D01*
X60813720Y-101065640D02*
X64753720Y-101065640D01*
X60752760Y-84728360D02*
X64692760Y-84728360D01*
X60752760Y-84488360D02*
X64692760Y-84488360D01*
X60752760Y-84608360D02*
X64692760Y-84608360D01*
X64692760Y-76923360D02*
X64362760Y-76923360D01*
X64692760Y-86063360D02*
X64692760Y-76923360D01*
X64362760Y-86063360D02*
X64692760Y-86063360D01*
X60752760Y-76923360D02*
X61082760Y-76923360D01*
X60752760Y-86063360D02*
X60752760Y-76923360D01*
X61082760Y-86063360D02*
X60752760Y-86063360D01*
X55769840Y-132944080D02*
X55769840Y-128004080D01*
X58509840Y-132944080D02*
X58509840Y-128004080D01*
X55769840Y-132944080D02*
X56084840Y-132944080D01*
X58194840Y-132944080D02*
X58509840Y-132944080D01*
X55769840Y-128004080D02*
X56084840Y-128004080D01*
X58194840Y-128004080D02*
X58509840Y-128004080D01*
X55520920Y-117079240D02*
X55520920Y-112139240D01*
X58260920Y-117079240D02*
X58260920Y-112139240D01*
X55520920Y-117079240D02*
X55835920Y-117079240D01*
X57945920Y-117079240D02*
X58260920Y-117079240D01*
X55520920Y-112139240D02*
X55835920Y-112139240D01*
X57945920Y-112139240D02*
X58260920Y-112139240D01*
X55363440Y-100106960D02*
X55363440Y-95166960D01*
X58103440Y-100106960D02*
X58103440Y-95166960D01*
X55363440Y-100106960D02*
X55678440Y-100106960D01*
X57788440Y-100106960D02*
X58103440Y-100106960D01*
X55363440Y-95166960D02*
X55678440Y-95166960D01*
X57788440Y-95166960D02*
X58103440Y-95166960D01*
X57519200Y-79109080D02*
X57834200Y-79109080D01*
X55094200Y-79109080D02*
X55409200Y-79109080D01*
X57519200Y-84049080D02*
X57834200Y-84049080D01*
X55094200Y-84049080D02*
X55409200Y-84049080D01*
X57834200Y-84049080D02*
X57834200Y-79109080D01*
X55094200Y-84049080D02*
X55094200Y-79109080D01*
X52559080Y-130107840D02*
X52559080Y-123607840D01*
X52559080Y-139007840D02*
X52559080Y-132507840D01*
X52559080Y-139007840D02*
X33359080Y-139007840D01*
X33359080Y-139007840D02*
X33359080Y-123607840D01*
X33359080Y-123607840D02*
X52559080Y-123607840D01*
X36859080Y-127007840D02*
X36859080Y-129307840D01*
X36859080Y-135607840D02*
X36859080Y-133307840D01*
X47359080Y-125307840D02*
X45059080Y-125307840D01*
X48459080Y-131307840D02*
X49359080Y-131307840D01*
X45059080Y-137307840D02*
X47359080Y-137307840D01*
X41559080Y-131307840D02*
X40059080Y-131307840D01*
X40059080Y-131307840D02*
X35559080Y-134007840D01*
X41559080Y-127607840D02*
X48459080Y-127607840D01*
X41559080Y-131307840D02*
X41559080Y-127607840D01*
X48459080Y-131307840D02*
X48459080Y-127607840D01*
X45059080Y-137307840D02*
X45059080Y-132807840D01*
X45059080Y-129807840D02*
X45059080Y-125307840D01*
X42559080Y-129807840D02*
X47559080Y-132807840D01*
X47559080Y-129807840D02*
X47559080Y-132807840D01*
X47559080Y-132807840D02*
X42559080Y-132807840D01*
X42559080Y-132807840D02*
X42559080Y-129807840D01*
X42559080Y-129807840D02*
X47559080Y-129807840D01*
X52472720Y-113318440D02*
X52472720Y-106818440D01*
X52472720Y-122218440D02*
X52472720Y-115718440D01*
X52472720Y-122218440D02*
X33272720Y-122218440D01*
X33272720Y-122218440D02*
X33272720Y-106818440D01*
X33272720Y-106818440D02*
X52472720Y-106818440D01*
X36772720Y-110218440D02*
X36772720Y-112518440D01*
X36772720Y-118818440D02*
X36772720Y-116518440D01*
X47272720Y-108518440D02*
X44972720Y-108518440D01*
X48372720Y-114518440D02*
X49272720Y-114518440D01*
X44972720Y-120518440D02*
X47272720Y-120518440D01*
X41472720Y-114518440D02*
X39972720Y-114518440D01*
X39972720Y-114518440D02*
X35472720Y-117218440D01*
X41472720Y-110818440D02*
X48372720Y-110818440D01*
X41472720Y-114518440D02*
X41472720Y-110818440D01*
X48372720Y-114518440D02*
X48372720Y-110818440D01*
X44972720Y-120518440D02*
X44972720Y-116018440D01*
X44972720Y-113018440D02*
X44972720Y-108518440D01*
X42472720Y-113018440D02*
X47472720Y-116018440D01*
X47472720Y-113018440D02*
X47472720Y-116018440D01*
X47472720Y-116018440D02*
X42472720Y-116018440D01*
X42472720Y-116018440D02*
X42472720Y-113018440D01*
X42472720Y-113018440D02*
X47472720Y-113018440D01*
X52427000Y-96818600D02*
X52427000Y-90318600D01*
X52427000Y-105718600D02*
X52427000Y-99218600D01*
X52427000Y-105718600D02*
X33227000Y-105718600D01*
X33227000Y-105718600D02*
X33227000Y-90318600D01*
X33227000Y-90318600D02*
X52427000Y-90318600D01*
X36727000Y-93718600D02*
X36727000Y-96018600D01*
X36727000Y-102318600D02*
X36727000Y-100018600D01*
X47227000Y-92018600D02*
X44927000Y-92018600D01*
X48327000Y-98018600D02*
X49227000Y-98018600D01*
X44927000Y-104018600D02*
X47227000Y-104018600D01*
X41427000Y-98018600D02*
X39927000Y-98018600D01*
X39927000Y-98018600D02*
X35427000Y-100718600D01*
X41427000Y-94318600D02*
X48327000Y-94318600D01*
X41427000Y-98018600D02*
X41427000Y-94318600D01*
X48327000Y-98018600D02*
X48327000Y-94318600D01*
X44927000Y-104018600D02*
X44927000Y-99518600D01*
X44927000Y-96518600D02*
X44927000Y-92018600D01*
X42427000Y-96518600D02*
X47427000Y-99518600D01*
X47427000Y-96518600D02*
X47427000Y-99518600D01*
X47427000Y-99518600D02*
X42427000Y-99518600D01*
X42427000Y-99518600D02*
X42427000Y-96518600D01*
X42427000Y-96518600D02*
X47427000Y-96518600D01*
X42381280Y-80018760D02*
X47381280Y-80018760D01*
X42381280Y-83018760D02*
X42381280Y-80018760D01*
X47381280Y-83018760D02*
X42381280Y-83018760D01*
X47381280Y-80018760D02*
X47381280Y-83018760D01*
X42381280Y-80018760D02*
X47381280Y-83018760D01*
X44881280Y-80018760D02*
X44881280Y-75518760D01*
X44881280Y-87518760D02*
X44881280Y-83018760D01*
X48281280Y-81518760D02*
X48281280Y-77818760D01*
X41381280Y-81518760D02*
X41381280Y-77818760D01*
X41381280Y-77818760D02*
X48281280Y-77818760D01*
X39881280Y-81518760D02*
X35381280Y-84218760D01*
X41381280Y-81518760D02*
X39881280Y-81518760D01*
X44881280Y-87518760D02*
X47181280Y-87518760D01*
X48281280Y-81518760D02*
X49181280Y-81518760D01*
X47181280Y-75518760D02*
X44881280Y-75518760D01*
X36681280Y-85818760D02*
X36681280Y-83518760D01*
X36681280Y-77218760D02*
X36681280Y-79518760D01*
X33181280Y-73818760D02*
X52381280Y-73818760D01*
X33181280Y-89218760D02*
X33181280Y-73818760D01*
X52381280Y-89218760D02*
X33181280Y-89218760D01*
X52381280Y-89218760D02*
X52381280Y-82718760D01*
X52381280Y-80318760D02*
X52381280Y-73818760D01*
D12*
X35442259Y-64688034D02*
X35442259Y-65354700D01*
X35204163Y-64307081D02*
X34966068Y-65021367D01*
X35585116Y-65021367D01*
X36013687Y-65307081D02*
X36013687Y-65354700D01*
X35966068Y-65449939D01*
X35918449Y-65497558D01*
X36347020Y-64354700D02*
X37013687Y-64354700D01*
X36585116Y-65354700D01*
X38156544Y-65354700D02*
X38156544Y-64354700D01*
X38251782Y-64973748D02*
X38537497Y-65354700D01*
X38537497Y-64688034D02*
X38156544Y-65068986D01*
X39156544Y-64354700D02*
X39347020Y-64354700D01*
X39442259Y-64402320D01*
X39537497Y-64497558D01*
X39585116Y-64688034D01*
X39585116Y-65021367D01*
X39537497Y-65211843D01*
X39442259Y-65307081D01*
X39347020Y-65354700D01*
X39156544Y-65354700D01*
X39061306Y-65307081D01*
X38966068Y-65211843D01*
X38918449Y-65021367D01*
X38918449Y-64688034D01*
X38966068Y-64497558D01*
X39061306Y-64402320D01*
X39156544Y-64354700D01*
X40013687Y-65354700D02*
X40013687Y-64354700D01*
X40442259Y-65354700D02*
X40442259Y-64830891D01*
X40394640Y-64735653D01*
X40299401Y-64688034D01*
X40156544Y-64688034D01*
X40061306Y-64735653D01*
X40013687Y-64783272D01*
X40918449Y-65354700D02*
X40918449Y-64688034D01*
X40918449Y-64783272D02*
X40966068Y-64735653D01*
X41061306Y-64688034D01*
X41204163Y-64688034D01*
X41299401Y-64735653D01*
X41347020Y-64830891D01*
X41347020Y-65354700D01*
X41347020Y-64830891D02*
X41394640Y-64735653D01*
X41489878Y-64688034D01*
X41632735Y-64688034D01*
X41727973Y-64735653D01*
X41775592Y-64830891D01*
X41775592Y-65354700D01*
X23932380Y-69492857D02*
X22932380Y-69492857D01*
X22932380Y-69254761D01*
X22980000Y-69111904D01*
X23075238Y-69016666D01*
X23170476Y-68969047D01*
X23360952Y-68921428D01*
X23503809Y-68921428D01*
X23694285Y-68969047D01*
X23789523Y-69016666D01*
X23884761Y-69111904D01*
X23932380Y-69254761D01*
X23932380Y-69492857D01*
X23884761Y-68540476D02*
X23932380Y-68397619D01*
X23932380Y-68159523D01*
X23884761Y-68064285D01*
X23837142Y-68016666D01*
X23741904Y-67969047D01*
X23646666Y-67969047D01*
X23551428Y-68016666D01*
X23503809Y-68064285D01*
X23456190Y-68159523D01*
X23408571Y-68350000D01*
X23360952Y-68445238D01*
X23313333Y-68492857D01*
X23218095Y-68540476D01*
X23122857Y-68540476D01*
X23027619Y-68492857D01*
X22980000Y-68445238D01*
X22932380Y-68350000D01*
X22932380Y-68111904D01*
X22980000Y-67969047D01*
X23932380Y-67016666D02*
X23932380Y-67588095D01*
X23932380Y-67302380D02*
X22932380Y-67302380D01*
X23075238Y-67397619D01*
X23170476Y-67492857D01*
X23218095Y-67588095D01*
X23360952Y-66445238D02*
X23313333Y-66540476D01*
X23265714Y-66588095D01*
X23170476Y-66635714D01*
X23122857Y-66635714D01*
X23027619Y-66588095D01*
X22980000Y-66540476D01*
X22932380Y-66445238D01*
X22932380Y-66254761D01*
X22980000Y-66159523D01*
X23027619Y-66111904D01*
X23122857Y-66064285D01*
X23170476Y-66064285D01*
X23265714Y-66111904D01*
X23313333Y-66159523D01*
X23360952Y-66254761D01*
X23360952Y-66445238D01*
X23408571Y-66540476D01*
X23456190Y-66588095D01*
X23551428Y-66635714D01*
X23741904Y-66635714D01*
X23837142Y-66588095D01*
X23884761Y-66540476D01*
X23932380Y-66445238D01*
X23932380Y-66254761D01*
X23884761Y-66159523D01*
X23837142Y-66111904D01*
X23741904Y-66064285D01*
X23551428Y-66064285D01*
X23456190Y-66111904D01*
X23408571Y-66159523D01*
X23360952Y-66254761D01*
X23408571Y-65302380D02*
X23456190Y-65159523D01*
X23503809Y-65111904D01*
X23599047Y-65064285D01*
X23741904Y-65064285D01*
X23837142Y-65111904D01*
X23884761Y-65159523D01*
X23932380Y-65254761D01*
X23932380Y-65635714D01*
X22932380Y-65635714D01*
X22932380Y-65302380D01*
X22980000Y-65207142D01*
X23027619Y-65159523D01*
X23122857Y-65111904D01*
X23218095Y-65111904D01*
X23313333Y-65159523D01*
X23360952Y-65207142D01*
X23408571Y-65302380D01*
X23408571Y-65635714D01*
X23027619Y-64683333D02*
X22980000Y-64635714D01*
X22932380Y-64540476D01*
X22932380Y-64302380D01*
X22980000Y-64207142D01*
X23027619Y-64159523D01*
X23122857Y-64111904D01*
X23218095Y-64111904D01*
X23360952Y-64159523D01*
X23932380Y-64730952D01*
X23932380Y-64111904D01*
X22932380Y-63492857D02*
X22932380Y-63397619D01*
X22980000Y-63302380D01*
X23027619Y-63254761D01*
X23122857Y-63207142D01*
X23313333Y-63159523D01*
X23551428Y-63159523D01*
X23741904Y-63207142D01*
X23837142Y-63254761D01*
X23884761Y-63302380D01*
X23932380Y-63397619D01*
X23932380Y-63492857D01*
X23884761Y-63588095D01*
X23837142Y-63635714D01*
X23741904Y-63683333D01*
X23551428Y-63730952D01*
X23313333Y-63730952D01*
X23122857Y-63683333D01*
X23027619Y-63635714D01*
X22980000Y-63588095D01*
X22932380Y-63492857D01*
X24094940Y-151431369D02*
X23094940Y-151431369D01*
X23094940Y-151193274D01*
X23142560Y-151050417D01*
X23237798Y-150955179D01*
X23333036Y-150907560D01*
X23523512Y-150859940D01*
X23666369Y-150859940D01*
X23856845Y-150907560D01*
X23952083Y-150955179D01*
X24047321Y-151050417D01*
X24094940Y-151193274D01*
X24094940Y-151431369D01*
X23999702Y-149859940D02*
X24047321Y-149907560D01*
X24094940Y-150050417D01*
X24094940Y-150145655D01*
X24047321Y-150288512D01*
X23952083Y-150383750D01*
X23856845Y-150431369D01*
X23666369Y-150478988D01*
X23523512Y-150478988D01*
X23333036Y-150431369D01*
X23237798Y-150383750D01*
X23142560Y-150288512D01*
X23094940Y-150145655D01*
X23094940Y-150050417D01*
X23142560Y-149907560D01*
X23190179Y-149859940D01*
X24094940Y-148145655D02*
X24094940Y-148717083D01*
X24094940Y-148431369D02*
X23094940Y-148431369D01*
X23237798Y-148526607D01*
X23333036Y-148621845D01*
X23380655Y-148717083D01*
X23190179Y-147764702D02*
X23142560Y-147717083D01*
X23094940Y-147621845D01*
X23094940Y-147383750D01*
X23142560Y-147288512D01*
X23190179Y-147240893D01*
X23285417Y-147193274D01*
X23380655Y-147193274D01*
X23523512Y-147240893D01*
X24094940Y-147812321D01*
X24094940Y-147193274D01*
X23094940Y-146907560D02*
X24094940Y-146574226D01*
X23094940Y-146240893D01*
X33012380Y-151113809D02*
X33012380Y-151590000D01*
X32012380Y-151590000D01*
X32012380Y-150875714D02*
X32012380Y-150209047D01*
X33012380Y-150637619D01*
X32440952Y-149685238D02*
X32393333Y-149780476D01*
X32345714Y-149828095D01*
X32250476Y-149875714D01*
X32202857Y-149875714D01*
X32107619Y-149828095D01*
X32060000Y-149780476D01*
X32012380Y-149685238D01*
X32012380Y-149494761D01*
X32060000Y-149399523D01*
X32107619Y-149351904D01*
X32202857Y-149304285D01*
X32250476Y-149304285D01*
X32345714Y-149351904D01*
X32393333Y-149399523D01*
X32440952Y-149494761D01*
X32440952Y-149685238D01*
X32488571Y-149780476D01*
X32536190Y-149828095D01*
X32631428Y-149875714D01*
X32821904Y-149875714D01*
X32917142Y-149828095D01*
X32964761Y-149780476D01*
X33012380Y-149685238D01*
X33012380Y-149494761D01*
X32964761Y-149399523D01*
X32917142Y-149351904D01*
X32821904Y-149304285D01*
X32631428Y-149304285D01*
X32536190Y-149351904D01*
X32488571Y-149399523D01*
X32440952Y-149494761D01*
X32012380Y-148685238D02*
X32012380Y-148590000D01*
X32060000Y-148494761D01*
X32107619Y-148447142D01*
X32202857Y-148399523D01*
X32393333Y-148351904D01*
X32631428Y-148351904D01*
X32821904Y-148399523D01*
X32917142Y-148447142D01*
X32964761Y-148494761D01*
X33012380Y-148590000D01*
X33012380Y-148685238D01*
X32964761Y-148780476D01*
X32917142Y-148828095D01*
X32821904Y-148875714D01*
X32631428Y-148923333D01*
X32393333Y-148923333D01*
X32202857Y-148875714D01*
X32107619Y-148828095D01*
X32060000Y-148780476D01*
X32012380Y-148685238D01*
X32012380Y-147447142D02*
X32012380Y-147923333D01*
X32488571Y-147970952D01*
X32440952Y-147923333D01*
X32393333Y-147828095D01*
X32393333Y-147590000D01*
X32440952Y-147494761D01*
X32488571Y-147447142D01*
X32583809Y-147399523D01*
X32821904Y-147399523D01*
X32917142Y-147447142D01*
X32964761Y-147494761D01*
X33012380Y-147590000D01*
X33012380Y-147828095D01*
X32964761Y-147923333D01*
X32917142Y-147970952D01*
X32917142Y-146399523D02*
X32964761Y-146447142D01*
X33012380Y-146590000D01*
X33012380Y-146685238D01*
X32964761Y-146828095D01*
X32869523Y-146923333D01*
X32774285Y-146970952D01*
X32583809Y-147018571D01*
X32440952Y-147018571D01*
X32250476Y-146970952D01*
X32155238Y-146923333D01*
X32060000Y-146828095D01*
X32012380Y-146685238D01*
X32012380Y-146590000D01*
X32060000Y-146447142D01*
X32107619Y-146399523D01*
X32012380Y-146113809D02*
X33012380Y-145780476D01*
X32012380Y-145447142D01*
X111855714Y-72612380D02*
X111522380Y-72136190D01*
X111284285Y-72612380D02*
X111284285Y-71612380D01*
X111665238Y-71612380D01*
X111760476Y-71660000D01*
X111808095Y-71707619D01*
X111855714Y-71802857D01*
X111855714Y-71945714D01*
X111808095Y-72040952D01*
X111760476Y-72088571D01*
X111665238Y-72136190D01*
X111284285Y-72136190D01*
X112284285Y-72612380D02*
X112284285Y-71612380D01*
X112665238Y-71612380D01*
X112760476Y-71660000D01*
X112808095Y-71707619D01*
X112855714Y-71802857D01*
X112855714Y-71945714D01*
X112808095Y-72040952D01*
X112760476Y-72088571D01*
X112665238Y-72136190D01*
X112284285Y-72136190D01*
X113284285Y-72612380D02*
X113284285Y-71612380D01*
X114427142Y-71612380D02*
X115093809Y-71612380D01*
X114427142Y-72612380D01*
X115093809Y-72612380D01*
X115474761Y-72088571D02*
X115808095Y-72088571D01*
X115950952Y-72612380D02*
X115474761Y-72612380D01*
X115474761Y-71612380D01*
X115950952Y-71612380D01*
X116950952Y-72612380D02*
X116617619Y-72136190D01*
X116379523Y-72612380D02*
X116379523Y-71612380D01*
X116760476Y-71612380D01*
X116855714Y-71660000D01*
X116903333Y-71707619D01*
X116950952Y-71802857D01*
X116950952Y-71945714D01*
X116903333Y-72040952D01*
X116855714Y-72088571D01*
X116760476Y-72136190D01*
X116379523Y-72136190D01*
X117570000Y-71612380D02*
X117760476Y-71612380D01*
X117855714Y-71660000D01*
X117950952Y-71755238D01*
X117998571Y-71945714D01*
X117998571Y-72279047D01*
X117950952Y-72469523D01*
X117855714Y-72564761D01*
X117760476Y-72612380D01*
X117570000Y-72612380D01*
X117474761Y-72564761D01*
X117379523Y-72469523D01*
X117331904Y-72279047D01*
X117331904Y-71945714D01*
X117379523Y-71755238D01*
X117474761Y-71660000D01*
X117570000Y-71612380D01*
X119093809Y-71612380D02*
X119331904Y-72612380D01*
X119522380Y-71898095D01*
X119712857Y-72612380D01*
X119950952Y-71612380D01*
X77352259Y-128188034D02*
X77352259Y-128854700D01*
X77114163Y-127807081D02*
X76876068Y-128521367D01*
X77495116Y-128521367D01*
X77923687Y-128807081D02*
X77923687Y-128854700D01*
X77876068Y-128949939D01*
X77828449Y-128997558D01*
X78257020Y-127854700D02*
X78923687Y-127854700D01*
X78495116Y-128854700D01*
X80066544Y-128854700D02*
X80066544Y-127854700D01*
X80161782Y-128473748D02*
X80447497Y-128854700D01*
X80447497Y-128188034D02*
X80066544Y-128568986D01*
X81066544Y-127854700D02*
X81257020Y-127854700D01*
X81352259Y-127902320D01*
X81447497Y-127997558D01*
X81495116Y-128188034D01*
X81495116Y-128521367D01*
X81447497Y-128711843D01*
X81352259Y-128807081D01*
X81257020Y-128854700D01*
X81066544Y-128854700D01*
X80971306Y-128807081D01*
X80876068Y-128711843D01*
X80828449Y-128521367D01*
X80828449Y-128188034D01*
X80876068Y-127997558D01*
X80971306Y-127902320D01*
X81066544Y-127854700D01*
X81923687Y-128854700D02*
X81923687Y-127854700D01*
X82352259Y-128854700D02*
X82352259Y-128330891D01*
X82304640Y-128235653D01*
X82209401Y-128188034D01*
X82066544Y-128188034D01*
X81971306Y-128235653D01*
X81923687Y-128283272D01*
X82828449Y-128854700D02*
X82828449Y-128188034D01*
X82828449Y-128283272D02*
X82876068Y-128235653D01*
X82971306Y-128188034D01*
X83114163Y-128188034D01*
X83209401Y-128235653D01*
X83257020Y-128330891D01*
X83257020Y-128854700D01*
X83257020Y-128330891D02*
X83304640Y-128235653D01*
X83399878Y-128188034D01*
X83542735Y-128188034D01*
X83637973Y-128235653D01*
X83685592Y-128330891D01*
X83685592Y-128854700D01*
X77352259Y-112948034D02*
X77352259Y-113614700D01*
X77114163Y-112567081D02*
X76876068Y-113281367D01*
X77495116Y-113281367D01*
X77923687Y-113567081D02*
X77923687Y-113614700D01*
X77876068Y-113709939D01*
X77828449Y-113757558D01*
X78257020Y-112614700D02*
X78923687Y-112614700D01*
X78495116Y-113614700D01*
X80066544Y-113614700D02*
X80066544Y-112614700D01*
X80161782Y-113233748D02*
X80447497Y-113614700D01*
X80447497Y-112948034D02*
X80066544Y-113328986D01*
X81066544Y-112614700D02*
X81257020Y-112614700D01*
X81352259Y-112662320D01*
X81447497Y-112757558D01*
X81495116Y-112948034D01*
X81495116Y-113281367D01*
X81447497Y-113471843D01*
X81352259Y-113567081D01*
X81257020Y-113614700D01*
X81066544Y-113614700D01*
X80971306Y-113567081D01*
X80876068Y-113471843D01*
X80828449Y-113281367D01*
X80828449Y-112948034D01*
X80876068Y-112757558D01*
X80971306Y-112662320D01*
X81066544Y-112614700D01*
X81923687Y-113614700D02*
X81923687Y-112614700D01*
X82352259Y-113614700D02*
X82352259Y-113090891D01*
X82304640Y-112995653D01*
X82209401Y-112948034D01*
X82066544Y-112948034D01*
X81971306Y-112995653D01*
X81923687Y-113043272D01*
X82828449Y-113614700D02*
X82828449Y-112948034D01*
X82828449Y-113043272D02*
X82876068Y-112995653D01*
X82971306Y-112948034D01*
X83114163Y-112948034D01*
X83209401Y-112995653D01*
X83257020Y-113090891D01*
X83257020Y-113614700D01*
X83257020Y-113090891D02*
X83304640Y-112995653D01*
X83399878Y-112948034D01*
X83542735Y-112948034D01*
X83637973Y-112995653D01*
X83685592Y-113090891D01*
X83685592Y-113614700D01*
X77352259Y-95168034D02*
X77352259Y-95834700D01*
X77114163Y-94787081D02*
X76876068Y-95501367D01*
X77495116Y-95501367D01*
X77923687Y-95787081D02*
X77923687Y-95834700D01*
X77876068Y-95929939D01*
X77828449Y-95977558D01*
X78257020Y-94834700D02*
X78923687Y-94834700D01*
X78495116Y-95834700D01*
X80066544Y-95834700D02*
X80066544Y-94834700D01*
X80161782Y-95453748D02*
X80447497Y-95834700D01*
X80447497Y-95168034D02*
X80066544Y-95548986D01*
X81066544Y-94834700D02*
X81257020Y-94834700D01*
X81352259Y-94882320D01*
X81447497Y-94977558D01*
X81495116Y-95168034D01*
X81495116Y-95501367D01*
X81447497Y-95691843D01*
X81352259Y-95787081D01*
X81257020Y-95834700D01*
X81066544Y-95834700D01*
X80971306Y-95787081D01*
X80876068Y-95691843D01*
X80828449Y-95501367D01*
X80828449Y-95168034D01*
X80876068Y-94977558D01*
X80971306Y-94882320D01*
X81066544Y-94834700D01*
X81923687Y-95834700D02*
X81923687Y-94834700D01*
X82352259Y-95834700D02*
X82352259Y-95310891D01*
X82304640Y-95215653D01*
X82209401Y-95168034D01*
X82066544Y-95168034D01*
X81971306Y-95215653D01*
X81923687Y-95263272D01*
X82828449Y-95834700D02*
X82828449Y-95168034D01*
X82828449Y-95263272D02*
X82876068Y-95215653D01*
X82971306Y-95168034D01*
X83114163Y-95168034D01*
X83209401Y-95215653D01*
X83257020Y-95310891D01*
X83257020Y-95834700D01*
X83257020Y-95310891D02*
X83304640Y-95215653D01*
X83399878Y-95168034D01*
X83542735Y-95168034D01*
X83637973Y-95215653D01*
X83685592Y-95310891D01*
X83685592Y-95834700D01*
X77352259Y-78658034D02*
X77352259Y-79324700D01*
X77114163Y-78277081D02*
X76876068Y-78991367D01*
X77495116Y-78991367D01*
X77923687Y-79277081D02*
X77923687Y-79324700D01*
X77876068Y-79419939D01*
X77828449Y-79467558D01*
X78257020Y-78324700D02*
X78923687Y-78324700D01*
X78495116Y-79324700D01*
X80066544Y-79324700D02*
X80066544Y-78324700D01*
X80161782Y-78943748D02*
X80447497Y-79324700D01*
X80447497Y-78658034D02*
X80066544Y-79038986D01*
X81066544Y-78324700D02*
X81257020Y-78324700D01*
X81352259Y-78372320D01*
X81447497Y-78467558D01*
X81495116Y-78658034D01*
X81495116Y-78991367D01*
X81447497Y-79181843D01*
X81352259Y-79277081D01*
X81257020Y-79324700D01*
X81066544Y-79324700D01*
X80971306Y-79277081D01*
X80876068Y-79181843D01*
X80828449Y-78991367D01*
X80828449Y-78658034D01*
X80876068Y-78467558D01*
X80971306Y-78372320D01*
X81066544Y-78324700D01*
X81923687Y-79324700D02*
X81923687Y-78324700D01*
X82352259Y-79324700D02*
X82352259Y-78800891D01*
X82304640Y-78705653D01*
X82209401Y-78658034D01*
X82066544Y-78658034D01*
X81971306Y-78705653D01*
X81923687Y-78753272D01*
X82828449Y-79324700D02*
X82828449Y-78658034D01*
X82828449Y-78753272D02*
X82876068Y-78705653D01*
X82971306Y-78658034D01*
X83114163Y-78658034D01*
X83209401Y-78705653D01*
X83257020Y-78800891D01*
X83257020Y-79324700D01*
X83257020Y-78800891D02*
X83304640Y-78705653D01*
X83399878Y-78658034D01*
X83542735Y-78658034D01*
X83637973Y-78705653D01*
X83685592Y-78800891D01*
X83685592Y-79324700D01*
X68077851Y-132795022D02*
X68125470Y-132652165D01*
X68173089Y-132604546D01*
X68268327Y-132556927D01*
X68411184Y-132556927D01*
X68506422Y-132604546D01*
X68554041Y-132652165D01*
X68601660Y-132747403D01*
X68601660Y-133128356D01*
X67601660Y-133128356D01*
X67601660Y-132795022D01*
X67649280Y-132699784D01*
X67696899Y-132652165D01*
X67792137Y-132604546D01*
X67887375Y-132604546D01*
X67982613Y-132652165D01*
X68030232Y-132699784D01*
X68077851Y-132795022D01*
X68077851Y-133128356D01*
X68506422Y-131556927D02*
X68554041Y-131604546D01*
X68601660Y-131747403D01*
X68601660Y-131842641D01*
X68554041Y-131985499D01*
X68458803Y-132080737D01*
X68363565Y-132128356D01*
X68173089Y-132175975D01*
X68030232Y-132175975D01*
X67839756Y-132128356D01*
X67744518Y-132080737D01*
X67649280Y-131985499D01*
X67601660Y-131842641D01*
X67601660Y-131747403D01*
X67649280Y-131604546D01*
X67696899Y-131556927D01*
X67601660Y-130652165D02*
X67601660Y-131128356D01*
X68077851Y-131175975D01*
X68030232Y-131128356D01*
X67982613Y-131033118D01*
X67982613Y-130795022D01*
X68030232Y-130699784D01*
X68077851Y-130652165D01*
X68173089Y-130604546D01*
X68411184Y-130604546D01*
X68506422Y-130652165D01*
X68554041Y-130699784D01*
X68601660Y-130795022D01*
X68601660Y-131033118D01*
X68554041Y-131128356D01*
X68506422Y-131175975D01*
X67601660Y-130271213D02*
X67601660Y-129604546D01*
X68601660Y-130033118D01*
X67601660Y-129318832D02*
X67601660Y-128652165D01*
X68601660Y-129080737D01*
X68506422Y-127699784D02*
X68554041Y-127747403D01*
X68601660Y-127890260D01*
X68601660Y-127985499D01*
X68554041Y-128128356D01*
X68458803Y-128223594D01*
X68363565Y-128271213D01*
X68173089Y-128318832D01*
X68030232Y-128318832D01*
X67839756Y-128271213D01*
X67744518Y-128223594D01*
X67649280Y-128128356D01*
X67601660Y-127985499D01*
X67601660Y-127890260D01*
X67649280Y-127747403D01*
X67696899Y-127699784D01*
X68077851Y-117189262D02*
X68125470Y-117046405D01*
X68173089Y-116998786D01*
X68268327Y-116951167D01*
X68411184Y-116951167D01*
X68506422Y-116998786D01*
X68554041Y-117046405D01*
X68601660Y-117141643D01*
X68601660Y-117522596D01*
X67601660Y-117522596D01*
X67601660Y-117189262D01*
X67649280Y-117094024D01*
X67696899Y-117046405D01*
X67792137Y-116998786D01*
X67887375Y-116998786D01*
X67982613Y-117046405D01*
X68030232Y-117094024D01*
X68077851Y-117189262D01*
X68077851Y-117522596D01*
X68506422Y-115951167D02*
X68554041Y-115998786D01*
X68601660Y-116141643D01*
X68601660Y-116236881D01*
X68554041Y-116379739D01*
X68458803Y-116474977D01*
X68363565Y-116522596D01*
X68173089Y-116570215D01*
X68030232Y-116570215D01*
X67839756Y-116522596D01*
X67744518Y-116474977D01*
X67649280Y-116379739D01*
X67601660Y-116236881D01*
X67601660Y-116141643D01*
X67649280Y-115998786D01*
X67696899Y-115951167D01*
X67601660Y-115046405D02*
X67601660Y-115522596D01*
X68077851Y-115570215D01*
X68030232Y-115522596D01*
X67982613Y-115427358D01*
X67982613Y-115189262D01*
X68030232Y-115094024D01*
X68077851Y-115046405D01*
X68173089Y-114998786D01*
X68411184Y-114998786D01*
X68506422Y-115046405D01*
X68554041Y-115094024D01*
X68601660Y-115189262D01*
X68601660Y-115427358D01*
X68554041Y-115522596D01*
X68506422Y-115570215D01*
X67601660Y-114665453D02*
X67601660Y-113998786D01*
X68601660Y-114427358D01*
X67601660Y-113713072D02*
X67601660Y-113046405D01*
X68601660Y-113474977D01*
X68506422Y-112094024D02*
X68554041Y-112141643D01*
X68601660Y-112284500D01*
X68601660Y-112379739D01*
X68554041Y-112522596D01*
X68458803Y-112617834D01*
X68363565Y-112665453D01*
X68173089Y-112713072D01*
X68030232Y-112713072D01*
X67839756Y-112665453D01*
X67744518Y-112617834D01*
X67649280Y-112522596D01*
X67601660Y-112379739D01*
X67601660Y-112284500D01*
X67649280Y-112141643D01*
X67696899Y-112094024D01*
X68443611Y-99739462D02*
X68491230Y-99596605D01*
X68538849Y-99548986D01*
X68634087Y-99501367D01*
X68776944Y-99501367D01*
X68872182Y-99548986D01*
X68919801Y-99596605D01*
X68967420Y-99691843D01*
X68967420Y-100072796D01*
X67967420Y-100072796D01*
X67967420Y-99739462D01*
X68015040Y-99644224D01*
X68062659Y-99596605D01*
X68157897Y-99548986D01*
X68253135Y-99548986D01*
X68348373Y-99596605D01*
X68395992Y-99644224D01*
X68443611Y-99739462D01*
X68443611Y-100072796D01*
X68872182Y-98501367D02*
X68919801Y-98548986D01*
X68967420Y-98691843D01*
X68967420Y-98787081D01*
X68919801Y-98929939D01*
X68824563Y-99025177D01*
X68729325Y-99072796D01*
X68538849Y-99120415D01*
X68395992Y-99120415D01*
X68205516Y-99072796D01*
X68110278Y-99025177D01*
X68015040Y-98929939D01*
X67967420Y-98787081D01*
X67967420Y-98691843D01*
X68015040Y-98548986D01*
X68062659Y-98501367D01*
X67967420Y-97596605D02*
X67967420Y-98072796D01*
X68443611Y-98120415D01*
X68395992Y-98072796D01*
X68348373Y-97977558D01*
X68348373Y-97739462D01*
X68395992Y-97644224D01*
X68443611Y-97596605D01*
X68538849Y-97548986D01*
X68776944Y-97548986D01*
X68872182Y-97596605D01*
X68919801Y-97644224D01*
X68967420Y-97739462D01*
X68967420Y-97977558D01*
X68919801Y-98072796D01*
X68872182Y-98120415D01*
X67967420Y-97215653D02*
X67967420Y-96548986D01*
X68967420Y-96977558D01*
X67967420Y-96263272D02*
X67967420Y-95596605D01*
X68967420Y-96025177D01*
X68872182Y-94644224D02*
X68919801Y-94691843D01*
X68967420Y-94834700D01*
X68967420Y-94929939D01*
X68919801Y-95072796D01*
X68824563Y-95168034D01*
X68729325Y-95215653D01*
X68538849Y-95263272D01*
X68395992Y-95263272D01*
X68205516Y-95215653D01*
X68110278Y-95168034D01*
X68015040Y-95072796D01*
X67967420Y-94929939D01*
X67967420Y-94834700D01*
X68015040Y-94691843D01*
X68062659Y-94644224D01*
X67971171Y-83204062D02*
X68018790Y-83061205D01*
X68066409Y-83013586D01*
X68161647Y-82965967D01*
X68304504Y-82965967D01*
X68399742Y-83013586D01*
X68447361Y-83061205D01*
X68494980Y-83156443D01*
X68494980Y-83537396D01*
X67494980Y-83537396D01*
X67494980Y-83204062D01*
X67542600Y-83108824D01*
X67590219Y-83061205D01*
X67685457Y-83013586D01*
X67780695Y-83013586D01*
X67875933Y-83061205D01*
X67923552Y-83108824D01*
X67971171Y-83204062D01*
X67971171Y-83537396D01*
X68399742Y-81965967D02*
X68447361Y-82013586D01*
X68494980Y-82156443D01*
X68494980Y-82251681D01*
X68447361Y-82394539D01*
X68352123Y-82489777D01*
X68256885Y-82537396D01*
X68066409Y-82585015D01*
X67923552Y-82585015D01*
X67733076Y-82537396D01*
X67637838Y-82489777D01*
X67542600Y-82394539D01*
X67494980Y-82251681D01*
X67494980Y-82156443D01*
X67542600Y-82013586D01*
X67590219Y-81965967D01*
X67494980Y-81061205D02*
X67494980Y-81537396D01*
X67971171Y-81585015D01*
X67923552Y-81537396D01*
X67875933Y-81442158D01*
X67875933Y-81204062D01*
X67923552Y-81108824D01*
X67971171Y-81061205D01*
X68066409Y-81013586D01*
X68304504Y-81013586D01*
X68399742Y-81061205D01*
X68447361Y-81108824D01*
X68494980Y-81204062D01*
X68494980Y-81442158D01*
X68447361Y-81537396D01*
X68399742Y-81585015D01*
X67494980Y-80680253D02*
X67494980Y-80013586D01*
X68494980Y-80442158D01*
X67494980Y-79727872D02*
X67494980Y-79061205D01*
X68494980Y-79489777D01*
X68399742Y-78108824D02*
X68447361Y-78156443D01*
X68494980Y-78299300D01*
X68494980Y-78394539D01*
X68447361Y-78537396D01*
X68352123Y-78632634D01*
X68256885Y-78680253D01*
X68066409Y-78727872D01*
X67923552Y-78727872D01*
X67733076Y-78680253D01*
X67637838Y-78632634D01*
X67542600Y-78537396D01*
X67494980Y-78394539D01*
X67494980Y-78299300D01*
X67542600Y-78156443D01*
X67590219Y-78108824D01*
X24094940Y-133889464D02*
X23618750Y-134222798D01*
X24094940Y-134460893D02*
X23094940Y-134460893D01*
X23094940Y-134079940D01*
X23142560Y-133984702D01*
X23190179Y-133937083D01*
X23285417Y-133889464D01*
X23428274Y-133889464D01*
X23523512Y-133937083D01*
X23571131Y-133984702D01*
X23618750Y-134079940D01*
X23618750Y-134460893D01*
X23571131Y-133460893D02*
X23571131Y-133127560D01*
X24094940Y-132984702D02*
X24094940Y-133460893D01*
X23094940Y-133460893D01*
X23094940Y-132984702D01*
X24094940Y-132079940D02*
X24094940Y-132556131D01*
X23094940Y-132556131D01*
X23809226Y-131794226D02*
X23809226Y-131318036D01*
X24094940Y-131889464D02*
X23094940Y-131556131D01*
X24094940Y-131222798D01*
X23618750Y-130698988D02*
X24094940Y-130698988D01*
X23094940Y-131032321D02*
X23618750Y-130698988D01*
X23094940Y-130365655D01*
X23428274Y-129318036D02*
X23428274Y-128603750D01*
X22999702Y-129032321D02*
X24285417Y-129318036D01*
X23856845Y-128698988D02*
X23856845Y-129413274D01*
X24285417Y-128984702D02*
X22999702Y-128698988D01*
X24094940Y-127746607D02*
X24094940Y-128318036D01*
X24094940Y-128032321D02*
X23094940Y-128032321D01*
X23237798Y-128127560D01*
X23333036Y-128222798D01*
X23380655Y-128318036D01*
X23922220Y-116780024D02*
X23446030Y-117113358D01*
X23922220Y-117351453D02*
X22922220Y-117351453D01*
X22922220Y-116970500D01*
X22969840Y-116875262D01*
X23017459Y-116827643D01*
X23112697Y-116780024D01*
X23255554Y-116780024D01*
X23350792Y-116827643D01*
X23398411Y-116875262D01*
X23446030Y-116970500D01*
X23446030Y-117351453D01*
X23398411Y-116351453D02*
X23398411Y-116018120D01*
X23922220Y-115875262D02*
X23922220Y-116351453D01*
X22922220Y-116351453D01*
X22922220Y-115875262D01*
X23922220Y-114970500D02*
X23922220Y-115446691D01*
X22922220Y-115446691D01*
X23636506Y-114684786D02*
X23636506Y-114208596D01*
X23922220Y-114780024D02*
X22922220Y-114446691D01*
X23922220Y-114113358D01*
X23446030Y-113589548D02*
X23922220Y-113589548D01*
X22922220Y-113922881D02*
X23446030Y-113589548D01*
X22922220Y-113256215D01*
X23255554Y-112208596D02*
X23255554Y-111494310D01*
X22826982Y-111922881D02*
X24112697Y-112208596D01*
X23684125Y-111589548D02*
X23684125Y-112303834D01*
X24112697Y-111875262D02*
X22826982Y-111589548D01*
X23017459Y-111208596D02*
X22969840Y-111160977D01*
X22922220Y-111065739D01*
X22922220Y-110827643D01*
X22969840Y-110732405D01*
X23017459Y-110684786D01*
X23112697Y-110637167D01*
X23207935Y-110637167D01*
X23350792Y-110684786D01*
X23922220Y-111256215D01*
X23922220Y-110637167D01*
X23703780Y-99711224D02*
X23227590Y-100044558D01*
X23703780Y-100282653D02*
X22703780Y-100282653D01*
X22703780Y-99901700D01*
X22751400Y-99806462D01*
X22799019Y-99758843D01*
X22894257Y-99711224D01*
X23037114Y-99711224D01*
X23132352Y-99758843D01*
X23179971Y-99806462D01*
X23227590Y-99901700D01*
X23227590Y-100282653D01*
X23179971Y-99282653D02*
X23179971Y-98949320D01*
X23703780Y-98806462D02*
X23703780Y-99282653D01*
X22703780Y-99282653D01*
X22703780Y-98806462D01*
X23703780Y-97901700D02*
X23703780Y-98377891D01*
X22703780Y-98377891D01*
X23418066Y-97615986D02*
X23418066Y-97139796D01*
X23703780Y-97711224D02*
X22703780Y-97377891D01*
X23703780Y-97044558D01*
X23227590Y-96520748D02*
X23703780Y-96520748D01*
X22703780Y-96854081D02*
X23227590Y-96520748D01*
X22703780Y-96187415D01*
X23037114Y-95139796D02*
X23037114Y-94425510D01*
X22608542Y-94854081D02*
X23894257Y-95139796D01*
X23465685Y-94520748D02*
X23465685Y-95235034D01*
X23894257Y-94806462D02*
X22608542Y-94520748D01*
X22703780Y-94187415D02*
X22703780Y-93568367D01*
X23084733Y-93901700D01*
X23084733Y-93758843D01*
X23132352Y-93663605D01*
X23179971Y-93615986D01*
X23275209Y-93568367D01*
X23513304Y-93568367D01*
X23608542Y-93615986D01*
X23656161Y-93663605D01*
X23703780Y-93758843D01*
X23703780Y-94044558D01*
X23656161Y-94139796D01*
X23608542Y-94187415D01*
X23744420Y-83917504D02*
X23268230Y-84250838D01*
X23744420Y-84488933D02*
X22744420Y-84488933D01*
X22744420Y-84107980D01*
X22792040Y-84012742D01*
X22839659Y-83965123D01*
X22934897Y-83917504D01*
X23077754Y-83917504D01*
X23172992Y-83965123D01*
X23220611Y-84012742D01*
X23268230Y-84107980D01*
X23268230Y-84488933D01*
X23220611Y-83488933D02*
X23220611Y-83155600D01*
X23744420Y-83012742D02*
X23744420Y-83488933D01*
X22744420Y-83488933D01*
X22744420Y-83012742D01*
X23744420Y-82107980D02*
X23744420Y-82584171D01*
X22744420Y-82584171D01*
X23458706Y-81822266D02*
X23458706Y-81346076D01*
X23744420Y-81917504D02*
X22744420Y-81584171D01*
X23744420Y-81250838D01*
X23268230Y-80727028D02*
X23744420Y-80727028D01*
X22744420Y-81060361D02*
X23268230Y-80727028D01*
X22744420Y-80393695D01*
X23077754Y-79346076D02*
X23077754Y-78631790D01*
X22649182Y-79060361D02*
X23934897Y-79346076D01*
X23506325Y-78727028D02*
X23506325Y-79441314D01*
X23934897Y-79012742D02*
X22649182Y-78727028D01*
X23077754Y-77869885D02*
X23744420Y-77869885D01*
X22696801Y-78107980D02*
X23411087Y-78346076D01*
X23411087Y-77727028D01*
X60159420Y-133130657D02*
X60159420Y-133702085D01*
X60159420Y-133416371D02*
X59159420Y-133416371D01*
X59302278Y-133511609D01*
X59397516Y-133606847D01*
X59445135Y-133702085D01*
X60159420Y-132702085D02*
X59159420Y-132702085D01*
X60159420Y-132130657D01*
X59159420Y-132130657D01*
X59159420Y-131178276D02*
X59159420Y-131654466D01*
X59635611Y-131702085D01*
X59587992Y-131654466D01*
X59540373Y-131559228D01*
X59540373Y-131321133D01*
X59587992Y-131225895D01*
X59635611Y-131178276D01*
X59730849Y-131130657D01*
X59968944Y-131130657D01*
X60064182Y-131178276D01*
X60111801Y-131225895D01*
X60159420Y-131321133D01*
X60159420Y-131559228D01*
X60111801Y-131654466D01*
X60064182Y-131702085D01*
X59587992Y-130559228D02*
X59540373Y-130654466D01*
X59492754Y-130702085D01*
X59397516Y-130749704D01*
X59349897Y-130749704D01*
X59254659Y-130702085D01*
X59207040Y-130654466D01*
X59159420Y-130559228D01*
X59159420Y-130368752D01*
X59207040Y-130273514D01*
X59254659Y-130225895D01*
X59349897Y-130178276D01*
X59397516Y-130178276D01*
X59492754Y-130225895D01*
X59540373Y-130273514D01*
X59587992Y-130368752D01*
X59587992Y-130559228D01*
X59635611Y-130654466D01*
X59683230Y-130702085D01*
X59778468Y-130749704D01*
X59968944Y-130749704D01*
X60064182Y-130702085D01*
X60111801Y-130654466D01*
X60159420Y-130559228D01*
X60159420Y-130368752D01*
X60111801Y-130273514D01*
X60064182Y-130225895D01*
X59968944Y-130178276D01*
X59778468Y-130178276D01*
X59683230Y-130225895D01*
X59635611Y-130273514D01*
X59587992Y-130368752D01*
X60159420Y-129225895D02*
X60159420Y-129797323D01*
X60159420Y-129511609D02*
X59159420Y-129511609D01*
X59302278Y-129606847D01*
X59397516Y-129702085D01*
X59445135Y-129797323D01*
X60159420Y-128749704D02*
X60159420Y-128559228D01*
X60111801Y-128463990D01*
X60064182Y-128416371D01*
X59921325Y-128321133D01*
X59730849Y-128273514D01*
X59349897Y-128273514D01*
X59254659Y-128321133D01*
X59207040Y-128368752D01*
X59159420Y-128463990D01*
X59159420Y-128654466D01*
X59207040Y-128749704D01*
X59254659Y-128797323D01*
X59349897Y-128844942D01*
X59587992Y-128844942D01*
X59683230Y-128797323D01*
X59730849Y-128749704D01*
X59778468Y-128654466D01*
X59778468Y-128463990D01*
X59730849Y-128368752D01*
X59683230Y-128321133D01*
X59587992Y-128273514D01*
X60443706Y-136305895D02*
X60443706Y-135829704D01*
X60729420Y-136401133D02*
X59729420Y-136067800D01*
X60729420Y-135734466D01*
X60194980Y-117209937D02*
X60194980Y-117781365D01*
X60194980Y-117495651D02*
X59194980Y-117495651D01*
X59337838Y-117590889D01*
X59433076Y-117686127D01*
X59480695Y-117781365D01*
X60194980Y-116781365D02*
X59194980Y-116781365D01*
X60194980Y-116209937D01*
X59194980Y-116209937D01*
X59194980Y-115257556D02*
X59194980Y-115733746D01*
X59671171Y-115781365D01*
X59623552Y-115733746D01*
X59575933Y-115638508D01*
X59575933Y-115400413D01*
X59623552Y-115305175D01*
X59671171Y-115257556D01*
X59766409Y-115209937D01*
X60004504Y-115209937D01*
X60099742Y-115257556D01*
X60147361Y-115305175D01*
X60194980Y-115400413D01*
X60194980Y-115638508D01*
X60147361Y-115733746D01*
X60099742Y-115781365D01*
X59623552Y-114638508D02*
X59575933Y-114733746D01*
X59528314Y-114781365D01*
X59433076Y-114828984D01*
X59385457Y-114828984D01*
X59290219Y-114781365D01*
X59242600Y-114733746D01*
X59194980Y-114638508D01*
X59194980Y-114448032D01*
X59242600Y-114352794D01*
X59290219Y-114305175D01*
X59385457Y-114257556D01*
X59433076Y-114257556D01*
X59528314Y-114305175D01*
X59575933Y-114352794D01*
X59623552Y-114448032D01*
X59623552Y-114638508D01*
X59671171Y-114733746D01*
X59718790Y-114781365D01*
X59814028Y-114828984D01*
X60004504Y-114828984D01*
X60099742Y-114781365D01*
X60147361Y-114733746D01*
X60194980Y-114638508D01*
X60194980Y-114448032D01*
X60147361Y-114352794D01*
X60099742Y-114305175D01*
X60004504Y-114257556D01*
X59814028Y-114257556D01*
X59718790Y-114305175D01*
X59671171Y-114352794D01*
X59623552Y-114448032D01*
X60194980Y-113305175D02*
X60194980Y-113876603D01*
X60194980Y-113590889D02*
X59194980Y-113590889D01*
X59337838Y-113686127D01*
X59433076Y-113781365D01*
X59480695Y-113876603D01*
X60194980Y-112828984D02*
X60194980Y-112638508D01*
X60147361Y-112543270D01*
X60099742Y-112495651D01*
X59956885Y-112400413D01*
X59766409Y-112352794D01*
X59385457Y-112352794D01*
X59290219Y-112400413D01*
X59242600Y-112448032D01*
X59194980Y-112543270D01*
X59194980Y-112733746D01*
X59242600Y-112828984D01*
X59290219Y-112876603D01*
X59385457Y-112924222D01*
X59623552Y-112924222D01*
X59718790Y-112876603D01*
X59766409Y-112828984D01*
X59814028Y-112733746D01*
X59814028Y-112543270D01*
X59766409Y-112448032D01*
X59718790Y-112400413D01*
X59623552Y-112352794D01*
X60479266Y-120385175D02*
X60479266Y-119908984D01*
X60764980Y-120480413D02*
X59764980Y-120147080D01*
X60764980Y-119813746D01*
X60266100Y-99973497D02*
X60266100Y-100544925D01*
X60266100Y-100259211D02*
X59266100Y-100259211D01*
X59408958Y-100354449D01*
X59504196Y-100449687D01*
X59551815Y-100544925D01*
X60266100Y-99544925D02*
X59266100Y-99544925D01*
X60266100Y-98973497D01*
X59266100Y-98973497D01*
X59266100Y-98021116D02*
X59266100Y-98497306D01*
X59742291Y-98544925D01*
X59694672Y-98497306D01*
X59647053Y-98402068D01*
X59647053Y-98163973D01*
X59694672Y-98068735D01*
X59742291Y-98021116D01*
X59837529Y-97973497D01*
X60075624Y-97973497D01*
X60170862Y-98021116D01*
X60218481Y-98068735D01*
X60266100Y-98163973D01*
X60266100Y-98402068D01*
X60218481Y-98497306D01*
X60170862Y-98544925D01*
X59694672Y-97402068D02*
X59647053Y-97497306D01*
X59599434Y-97544925D01*
X59504196Y-97592544D01*
X59456577Y-97592544D01*
X59361339Y-97544925D01*
X59313720Y-97497306D01*
X59266100Y-97402068D01*
X59266100Y-97211592D01*
X59313720Y-97116354D01*
X59361339Y-97068735D01*
X59456577Y-97021116D01*
X59504196Y-97021116D01*
X59599434Y-97068735D01*
X59647053Y-97116354D01*
X59694672Y-97211592D01*
X59694672Y-97402068D01*
X59742291Y-97497306D01*
X59789910Y-97544925D01*
X59885148Y-97592544D01*
X60075624Y-97592544D01*
X60170862Y-97544925D01*
X60218481Y-97497306D01*
X60266100Y-97402068D01*
X60266100Y-97211592D01*
X60218481Y-97116354D01*
X60170862Y-97068735D01*
X60075624Y-97021116D01*
X59885148Y-97021116D01*
X59789910Y-97068735D01*
X59742291Y-97116354D01*
X59694672Y-97211592D01*
X60266100Y-96068735D02*
X60266100Y-96640163D01*
X60266100Y-96354449D02*
X59266100Y-96354449D01*
X59408958Y-96449687D01*
X59504196Y-96544925D01*
X59551815Y-96640163D01*
X60266100Y-95592544D02*
X60266100Y-95402068D01*
X60218481Y-95306830D01*
X60170862Y-95259211D01*
X60028005Y-95163973D01*
X59837529Y-95116354D01*
X59456577Y-95116354D01*
X59361339Y-95163973D01*
X59313720Y-95211592D01*
X59266100Y-95306830D01*
X59266100Y-95497306D01*
X59313720Y-95592544D01*
X59361339Y-95640163D01*
X59456577Y-95687782D01*
X59694672Y-95687782D01*
X59789910Y-95640163D01*
X59837529Y-95592544D01*
X59885148Y-95497306D01*
X59885148Y-95306830D01*
X59837529Y-95211592D01*
X59789910Y-95163973D01*
X59694672Y-95116354D01*
X60550386Y-103148735D02*
X60550386Y-102672544D01*
X60836100Y-103243973D02*
X59836100Y-102910640D01*
X60836100Y-102577306D01*
X60205140Y-83636217D02*
X60205140Y-84207645D01*
X60205140Y-83921931D02*
X59205140Y-83921931D01*
X59347998Y-84017169D01*
X59443236Y-84112407D01*
X59490855Y-84207645D01*
X60205140Y-83207645D02*
X59205140Y-83207645D01*
X60205140Y-82636217D01*
X59205140Y-82636217D01*
X59205140Y-81683836D02*
X59205140Y-82160026D01*
X59681331Y-82207645D01*
X59633712Y-82160026D01*
X59586093Y-82064788D01*
X59586093Y-81826693D01*
X59633712Y-81731455D01*
X59681331Y-81683836D01*
X59776569Y-81636217D01*
X60014664Y-81636217D01*
X60109902Y-81683836D01*
X60157521Y-81731455D01*
X60205140Y-81826693D01*
X60205140Y-82064788D01*
X60157521Y-82160026D01*
X60109902Y-82207645D01*
X59633712Y-81064788D02*
X59586093Y-81160026D01*
X59538474Y-81207645D01*
X59443236Y-81255264D01*
X59395617Y-81255264D01*
X59300379Y-81207645D01*
X59252760Y-81160026D01*
X59205140Y-81064788D01*
X59205140Y-80874312D01*
X59252760Y-80779074D01*
X59300379Y-80731455D01*
X59395617Y-80683836D01*
X59443236Y-80683836D01*
X59538474Y-80731455D01*
X59586093Y-80779074D01*
X59633712Y-80874312D01*
X59633712Y-81064788D01*
X59681331Y-81160026D01*
X59728950Y-81207645D01*
X59824188Y-81255264D01*
X60014664Y-81255264D01*
X60109902Y-81207645D01*
X60157521Y-81160026D01*
X60205140Y-81064788D01*
X60205140Y-80874312D01*
X60157521Y-80779074D01*
X60109902Y-80731455D01*
X60014664Y-80683836D01*
X59824188Y-80683836D01*
X59728950Y-80731455D01*
X59681331Y-80779074D01*
X59633712Y-80874312D01*
X60205140Y-79731455D02*
X60205140Y-80302883D01*
X60205140Y-80017169D02*
X59205140Y-80017169D01*
X59347998Y-80112407D01*
X59443236Y-80207645D01*
X59490855Y-80302883D01*
X60205140Y-79255264D02*
X60205140Y-79064788D01*
X60157521Y-78969550D01*
X60109902Y-78921931D01*
X59967045Y-78826693D01*
X59776569Y-78779074D01*
X59395617Y-78779074D01*
X59300379Y-78826693D01*
X59252760Y-78874312D01*
X59205140Y-78969550D01*
X59205140Y-79160026D01*
X59252760Y-79255264D01*
X59300379Y-79302883D01*
X59395617Y-79350502D01*
X59633712Y-79350502D01*
X59728950Y-79302883D01*
X59776569Y-79255264D01*
X59824188Y-79160026D01*
X59824188Y-78969550D01*
X59776569Y-78874312D01*
X59728950Y-78826693D01*
X59633712Y-78779074D01*
X60489426Y-86811455D02*
X60489426Y-86335264D01*
X60775140Y-86906693D02*
X59775140Y-86573360D01*
X60775140Y-86240026D01*
X55092220Y-132021699D02*
X55092220Y-132593127D01*
X55092220Y-132307413D02*
X54092220Y-132307413D01*
X54235078Y-132402651D01*
X54330316Y-132497889D01*
X54377935Y-132593127D01*
X54092220Y-131402651D02*
X54092220Y-131307413D01*
X54139840Y-131212175D01*
X54187459Y-131164556D01*
X54282697Y-131116937D01*
X54473173Y-131069318D01*
X54711268Y-131069318D01*
X54901744Y-131116937D01*
X54996982Y-131164556D01*
X55044601Y-131212175D01*
X55092220Y-131307413D01*
X55092220Y-131402651D01*
X55044601Y-131497889D01*
X54996982Y-131545508D01*
X54901744Y-131593127D01*
X54711268Y-131640746D01*
X54473173Y-131640746D01*
X54282697Y-131593127D01*
X54187459Y-131545508D01*
X54139840Y-131497889D01*
X54092220Y-131402651D01*
X54092220Y-130450270D02*
X54092220Y-130355032D01*
X54139840Y-130259794D01*
X54187459Y-130212175D01*
X54282697Y-130164556D01*
X54473173Y-130116937D01*
X54711268Y-130116937D01*
X54901744Y-130164556D01*
X54996982Y-130212175D01*
X55044601Y-130259794D01*
X55092220Y-130355032D01*
X55092220Y-130450270D01*
X55044601Y-130545508D01*
X54996982Y-130593127D01*
X54901744Y-130640746D01*
X54711268Y-130688365D01*
X54473173Y-130688365D01*
X54282697Y-130640746D01*
X54187459Y-130593127D01*
X54139840Y-130545508D01*
X54092220Y-130450270D01*
X54425554Y-129688365D02*
X55092220Y-129688365D01*
X54520792Y-129688365D02*
X54473173Y-129640746D01*
X54425554Y-129545508D01*
X54425554Y-129402651D01*
X54473173Y-129307413D01*
X54568411Y-129259794D01*
X55092220Y-129259794D01*
X54568411Y-128450270D02*
X54568411Y-128783603D01*
X55092220Y-128783603D02*
X54092220Y-128783603D01*
X54092220Y-128307413D01*
X54843300Y-116156859D02*
X54843300Y-116728287D01*
X54843300Y-116442573D02*
X53843300Y-116442573D01*
X53986158Y-116537811D01*
X54081396Y-116633049D01*
X54129015Y-116728287D01*
X53843300Y-115537811D02*
X53843300Y-115442573D01*
X53890920Y-115347335D01*
X53938539Y-115299716D01*
X54033777Y-115252097D01*
X54224253Y-115204478D01*
X54462348Y-115204478D01*
X54652824Y-115252097D01*
X54748062Y-115299716D01*
X54795681Y-115347335D01*
X54843300Y-115442573D01*
X54843300Y-115537811D01*
X54795681Y-115633049D01*
X54748062Y-115680668D01*
X54652824Y-115728287D01*
X54462348Y-115775906D01*
X54224253Y-115775906D01*
X54033777Y-115728287D01*
X53938539Y-115680668D01*
X53890920Y-115633049D01*
X53843300Y-115537811D01*
X53843300Y-114585430D02*
X53843300Y-114490192D01*
X53890920Y-114394954D01*
X53938539Y-114347335D01*
X54033777Y-114299716D01*
X54224253Y-114252097D01*
X54462348Y-114252097D01*
X54652824Y-114299716D01*
X54748062Y-114347335D01*
X54795681Y-114394954D01*
X54843300Y-114490192D01*
X54843300Y-114585430D01*
X54795681Y-114680668D01*
X54748062Y-114728287D01*
X54652824Y-114775906D01*
X54462348Y-114823525D01*
X54224253Y-114823525D01*
X54033777Y-114775906D01*
X53938539Y-114728287D01*
X53890920Y-114680668D01*
X53843300Y-114585430D01*
X54176634Y-113823525D02*
X54843300Y-113823525D01*
X54271872Y-113823525D02*
X54224253Y-113775906D01*
X54176634Y-113680668D01*
X54176634Y-113537811D01*
X54224253Y-113442573D01*
X54319491Y-113394954D01*
X54843300Y-113394954D01*
X54319491Y-112585430D02*
X54319491Y-112918763D01*
X54843300Y-112918763D02*
X53843300Y-112918763D01*
X53843300Y-112442573D01*
X54685820Y-99184579D02*
X54685820Y-99756007D01*
X54685820Y-99470293D02*
X53685820Y-99470293D01*
X53828678Y-99565531D01*
X53923916Y-99660769D01*
X53971535Y-99756007D01*
X53685820Y-98565531D02*
X53685820Y-98470293D01*
X53733440Y-98375055D01*
X53781059Y-98327436D01*
X53876297Y-98279817D01*
X54066773Y-98232198D01*
X54304868Y-98232198D01*
X54495344Y-98279817D01*
X54590582Y-98327436D01*
X54638201Y-98375055D01*
X54685820Y-98470293D01*
X54685820Y-98565531D01*
X54638201Y-98660769D01*
X54590582Y-98708388D01*
X54495344Y-98756007D01*
X54304868Y-98803626D01*
X54066773Y-98803626D01*
X53876297Y-98756007D01*
X53781059Y-98708388D01*
X53733440Y-98660769D01*
X53685820Y-98565531D01*
X53685820Y-97613150D02*
X53685820Y-97517912D01*
X53733440Y-97422674D01*
X53781059Y-97375055D01*
X53876297Y-97327436D01*
X54066773Y-97279817D01*
X54304868Y-97279817D01*
X54495344Y-97327436D01*
X54590582Y-97375055D01*
X54638201Y-97422674D01*
X54685820Y-97517912D01*
X54685820Y-97613150D01*
X54638201Y-97708388D01*
X54590582Y-97756007D01*
X54495344Y-97803626D01*
X54304868Y-97851245D01*
X54066773Y-97851245D01*
X53876297Y-97803626D01*
X53781059Y-97756007D01*
X53733440Y-97708388D01*
X53685820Y-97613150D01*
X54019154Y-96851245D02*
X54685820Y-96851245D01*
X54114392Y-96851245D02*
X54066773Y-96803626D01*
X54019154Y-96708388D01*
X54019154Y-96565531D01*
X54066773Y-96470293D01*
X54162011Y-96422674D01*
X54685820Y-96422674D01*
X54162011Y-95613150D02*
X54162011Y-95946483D01*
X54685820Y-95946483D02*
X53685820Y-95946483D01*
X53685820Y-95470293D01*
X54416580Y-83126699D02*
X54416580Y-83698127D01*
X54416580Y-83412413D02*
X53416580Y-83412413D01*
X53559438Y-83507651D01*
X53654676Y-83602889D01*
X53702295Y-83698127D01*
X53416580Y-82507651D02*
X53416580Y-82412413D01*
X53464200Y-82317175D01*
X53511819Y-82269556D01*
X53607057Y-82221937D01*
X53797533Y-82174318D01*
X54035628Y-82174318D01*
X54226104Y-82221937D01*
X54321342Y-82269556D01*
X54368961Y-82317175D01*
X54416580Y-82412413D01*
X54416580Y-82507651D01*
X54368961Y-82602889D01*
X54321342Y-82650508D01*
X54226104Y-82698127D01*
X54035628Y-82745746D01*
X53797533Y-82745746D01*
X53607057Y-82698127D01*
X53511819Y-82650508D01*
X53464200Y-82602889D01*
X53416580Y-82507651D01*
X53416580Y-81555270D02*
X53416580Y-81460032D01*
X53464200Y-81364794D01*
X53511819Y-81317175D01*
X53607057Y-81269556D01*
X53797533Y-81221937D01*
X54035628Y-81221937D01*
X54226104Y-81269556D01*
X54321342Y-81317175D01*
X54368961Y-81364794D01*
X54416580Y-81460032D01*
X54416580Y-81555270D01*
X54368961Y-81650508D01*
X54321342Y-81698127D01*
X54226104Y-81745746D01*
X54035628Y-81793365D01*
X53797533Y-81793365D01*
X53607057Y-81745746D01*
X53511819Y-81698127D01*
X53464200Y-81650508D01*
X53416580Y-81555270D01*
X53749914Y-80793365D02*
X54416580Y-80793365D01*
X53845152Y-80793365D02*
X53797533Y-80745746D01*
X53749914Y-80650508D01*
X53749914Y-80507651D01*
X53797533Y-80412413D01*
X53892771Y-80364794D01*
X54416580Y-80364794D01*
X53892771Y-79555270D02*
X53892771Y-79888603D01*
X54416580Y-79888603D02*
X53416580Y-79888603D01*
X53416580Y-79412413D01*
X35995565Y-72771140D02*
X35995565Y-71771140D01*
X35995565Y-72247331D02*
X36566994Y-72247331D01*
X36566994Y-72771140D02*
X36566994Y-71771140D01*
X37519375Y-72771140D02*
X37043184Y-72771140D01*
X37043184Y-71771140D01*
X37805089Y-72723521D02*
X37947946Y-72771140D01*
X38186041Y-72771140D01*
X38281280Y-72723521D01*
X38328899Y-72675902D01*
X38376518Y-72580664D01*
X38376518Y-72485426D01*
X38328899Y-72390188D01*
X38281280Y-72342569D01*
X38186041Y-72294950D01*
X37995565Y-72247331D01*
X37900327Y-72199712D01*
X37852708Y-72152093D01*
X37805089Y-72056855D01*
X37805089Y-71961617D01*
X37852708Y-71866379D01*
X37900327Y-71818760D01*
X37995565Y-71771140D01*
X38233660Y-71771140D01*
X38376518Y-71818760D01*
X38947946Y-72199712D02*
X38852708Y-72152093D01*
X38805089Y-72104474D01*
X38757470Y-72009236D01*
X38757470Y-71961617D01*
X38805089Y-71866379D01*
X38852708Y-71818760D01*
X38947946Y-71771140D01*
X39138422Y-71771140D01*
X39233660Y-71818760D01*
X39281280Y-71866379D01*
X39328899Y-71961617D01*
X39328899Y-72009236D01*
X39281280Y-72104474D01*
X39233660Y-72152093D01*
X39138422Y-72199712D01*
X38947946Y-72199712D01*
X38852708Y-72247331D01*
X38805089Y-72294950D01*
X38757470Y-72390188D01*
X38757470Y-72580664D01*
X38805089Y-72675902D01*
X38852708Y-72723521D01*
X38947946Y-72771140D01*
X39138422Y-72771140D01*
X39233660Y-72723521D01*
X39281280Y-72675902D01*
X39328899Y-72580664D01*
X39328899Y-72390188D01*
X39281280Y-72294950D01*
X39233660Y-72247331D01*
X39138422Y-72199712D01*
X40233660Y-72771140D02*
X39757470Y-72771140D01*
X39757470Y-71771140D01*
X40566994Y-72390188D02*
X41328899Y-72390188D01*
X41805089Y-72771140D02*
X41805089Y-71771140D01*
X42043184Y-71771140D01*
X42186041Y-71818760D01*
X42281280Y-71913998D01*
X42328899Y-72009236D01*
X42376518Y-72199712D01*
X42376518Y-72342569D01*
X42328899Y-72533045D01*
X42281280Y-72628283D01*
X42186041Y-72723521D01*
X42043184Y-72771140D01*
X41805089Y-72771140D01*
X43376518Y-72675902D02*
X43328899Y-72723521D01*
X43186041Y-72771140D01*
X43090803Y-72771140D01*
X42947946Y-72723521D01*
X42852708Y-72628283D01*
X42805089Y-72533045D01*
X42757470Y-72342569D01*
X42757470Y-72199712D01*
X42805089Y-72009236D01*
X42852708Y-71913998D01*
X42947946Y-71818760D01*
X43090803Y-71771140D01*
X43186041Y-71771140D01*
X43328899Y-71818760D01*
X43376518Y-71866379D01*
X44281280Y-71771140D02*
X43805089Y-71771140D01*
X43757470Y-72247331D01*
X43805089Y-72199712D01*
X43900327Y-72152093D01*
X44138422Y-72152093D01*
X44233660Y-72199712D01*
X44281280Y-72247331D01*
X44328899Y-72342569D01*
X44328899Y-72580664D01*
X44281280Y-72675902D01*
X44233660Y-72723521D01*
X44138422Y-72771140D01*
X43900327Y-72771140D01*
X43805089Y-72723521D01*
X43757470Y-72675902D01*
X44614613Y-71771140D02*
X44947946Y-72771140D01*
X45281280Y-71771140D01*
X45614613Y-72390188D02*
X46376518Y-72390188D01*
X46805089Y-72723521D02*
X46947946Y-72771140D01*
X47186041Y-72771140D01*
X47281280Y-72723521D01*
X47328899Y-72675902D01*
X47376518Y-72580664D01*
X47376518Y-72485426D01*
X47328899Y-72390188D01*
X47281280Y-72342569D01*
X47186041Y-72294950D01*
X46995565Y-72247331D01*
X46900327Y-72199712D01*
X46852708Y-72152093D01*
X46805089Y-72056855D01*
X46805089Y-71961617D01*
X46852708Y-71866379D01*
X46900327Y-71818760D01*
X46995565Y-71771140D01*
X47233660Y-71771140D01*
X47376518Y-71818760D01*
X47805089Y-72390188D02*
X48566994Y-72390188D01*
X49614613Y-72675902D02*
X49566994Y-72723521D01*
X49424137Y-72771140D01*
X49328899Y-72771140D01*
X49186041Y-72723521D01*
X49090803Y-72628283D01*
X49043184Y-72533045D01*
X48995565Y-72342569D01*
X48995565Y-72199712D01*
X49043184Y-72009236D01*
X49090803Y-71913998D01*
X49186041Y-71818760D01*
X49328899Y-71771140D01*
X49424137Y-71771140D01*
X49566994Y-71818760D01*
X49614613Y-71866379D01*
M02*
